<?xml version="1.0" standalone="no"?>
<!DOCTYPE svg PUBLIC "-//W3C//DTD SVG 1.1//EN" "http://www.w3.org/Graphics/SVG/1.1/DTD/svg11.dtd" >
<svg xmlns="http://www.w3.org/2000/svg">
<metadata>
Created by FontPrep 20130207 at Thu Oct  8 12:54:13 2015
 By David Johnson
Copyright \\\(c\\\) 2010 by Ryoichi Tsunekawa. All rights reserved.
</metadata>
<defs>
<font id="268ad9afa81838d88e118a781aa59bc3" horiz-adv-x='1024' >
  <font-face 
    font-family="BebasNeue-Thin"
    font-weight="200"
    font-stretch="normal"
    units-per-em="2048"
    panose-1="0 0 5 0 0 0 0 0 0 0"
    ascent="1536"
    descent="-512"
    x-height="1434"
    cap-height="1434"
    bbox="-98 -367 1628 1786"
    underline-thickness="102"
    underline-position="-123"
    unicode-range="U+0020-F6C3"
  />
<missing-glyph horiz-adv-x="1122" 
d="M279 1307l278 -568l-299 -616h21l286 596l289 -596h18l-297 616l277 568h-18l-269 -549l-268 549h-18zM102 0v1434h918v-1434h-918z" />
    <glyph glyph-name=".notdef" horiz-adv-x="1122" 
d="M279 1307l278 -568l-299 -616h21l286 596l289 -596h18l-297 616l277 568h-18l-269 -549l-268 549h-18zM102 0v1434h918v-1434h-918z" />
    <glyph glyph-name=".null" horiz-adv-x="0" 
 />
    <glyph glyph-name="nonmarkingreturn" horiz-adv-x="681" 
 />
    <glyph glyph-name="space" unicode=" " horiz-adv-x="317" 
 />
    <glyph glyph-name="exclam" unicode="!" horiz-adv-x="184" 
d="M82 158h20v-158h-20v158zM82 1436h20v-834l-2 -285h-16l-2 285v834z" />
    <glyph glyph-name="quotedbl" unicode="&#x22;" horiz-adv-x="284" 
d="M182 1436h21v-318h-21v318zM82 1436h20v-318h-20v318z" />
    <glyph glyph-name="numbersign" unicode="#" horiz-adv-x="851" 
d="M559 500l53 516h-301l-53 -516h301zM770 1016h-137l-53 -516h135v-19h-137l-52 -481h-20l51 481h-301l-51 -481h-21l52 481h-154v19h156l53 516h-156v18h158l41 402h20l-41 -402h301l41 402h21l-41 -402h135v-18z" />
    <glyph glyph-name="dollar" unicode="$" horiz-adv-x="751" 
d="M389 1577v-133q145 -4 213 -102t68 -255v-24h-21v24q0 150 -64 243q-65 93 -207 93t-206 -92q-64 -93 -63 -219q0 -126 58 -206t141 -132q83 -53 165 -106t140 -134t59 -188q0 -156 -69 -254t-214 -102v-119h-20v119q-151 2 -219 100t-68 256v68h20v-68q0 -152 66 -244
t209 -92t209 92t65 244q0 102 -58 180t-140 130t-165 106t-142 137q-58 82 -58 191q0 342 281 354v133h20z" />
    <glyph glyph-name="percent" unicode="%" horiz-adv-x="1214" 
d="M952 856q-160 0 -159 -213v-407q0 -215 159 -216q160 0 160 216v407q0 213 -160 213zM952 877q180 0 181 -234v-407q0 -102 -42 -169q-41 -67 -137 -67t-139 68t-43 168v407q0 100 42 167t138 67zM262 1415q-160 0 -160 -215v-416q0 -213 160 -213t160 213v416
q0 215 -160 215zM877 1436h22l-565 -1436h-23zM262 1436q94 0 137 -68t43 -168v-416q0 -100 -42 -167t-138 -67t-138 68q-42 66 -42 166v416q0 100 43 168t137 68z" />
    <glyph glyph-name="ampersand" unicode="&#x26;" horiz-adv-x="813" 
d="M623 739h-277q-112 -10 -178 -91t-66 -195v-129q0 -142 65 -228t188 -86t195 67t73 177v485zM602 1413h-174q-326 0 -326 -336v-41q0 -110 62 -190t168 -88h291v160h20v-160h88v-19h-88v-542q0 -135 43 -197h-24q-37 63 -37 150q-31 -78 -101 -119t-157 -41
q-145 0 -215 91t-70 243v129q0 104 53 185t152 110q-100 23 -153 104q-52 82 -52 184v41q0 172 87 264t259 93h174v-21z" />
    <glyph glyph-name="quotesingle" unicode="'" horiz-adv-x="184" 
d="M82 1436h20v-318h-20v318z" />
    <glyph glyph-name="parenleft" unicode="(" horiz-adv-x="450" 
d="M369 1415h-31q-135 0 -185 -77t-51 -222v-797q0 -147 50 -223t186 -76h31v-20h-31q-145 0 -201 83q-55 83 -55 236v797q0 154 55 237t201 83h31v-21z" />
    <glyph glyph-name="parenright" unicode=")" horiz-adv-x="450" 
d="M82 1436h31q145 0 200 -83t56 -237v-797q1 -155 -55 -237t-201 -82h-31v20h31q137 0 186 76t49 223v797q0 145 -50 222t-185 77h-31v21z" />
    <glyph glyph-name="asterisk" unicode="*" horiz-adv-x="804" 
d="M391 1417h21v-299l284 78l6 -20l-286 -74l170 -244l-17 -12l-168 244l-168 -242l-16 10l170 244l-285 80l7 20l282 -84v299z" />
    <glyph glyph-name="plus" unicode="+" horiz-adv-x="786" 
d="M705 707h-302v-308h-20v308h-301v20h301v303h20v-303h302v-20z" />
    <glyph glyph-name="comma" unicode="," horiz-adv-x="215" 
d="M113 0v160h20v-160l-37 -127h-14l33 127h-2z" />
    <glyph glyph-name="hyphen" unicode="-" horiz-adv-x="520" 
d="M82 709v18h356v-18h-356z" />
    <glyph glyph-name="period" unicode="." horiz-adv-x="184" 
d="M82 160h20v-160h-20v160z" />
    <glyph glyph-name="slash" unicode="/" horiz-adv-x="749" 
d="M647 1434h21l-566 -1434h-20z" />
    <glyph glyph-name="zero" unicode="0" horiz-adv-x="763" 
d="M102 1081v-727q0 -154 68 -249t213 -95t212 95t67 249v727q0 154 -67 249t-212 95t-213 -95t-68 -249zM82 354v727q0 162 73 262q73 101 227 101t228 -100q72 -100 72 -263v-727q0 -162 -73 -263t-227 -101t-228 101q-72 101 -72 263z" />
    <glyph glyph-name="one" unicode="1" horiz-adv-x="442" 
d="M330 0v1399q-74 -174 -248 -195v21q174 20 240 211h28v-1436h-20z" />
    <glyph glyph-name="two" unicode="2" horiz-adv-x="751" 
d="M375 1444q295 0 295 -369q0 -190 -198 -388q-83 -83 -165 -173t-142 -216t-63 -271v-7h562v-20h-582v10q0 215 113 388q79 121 231 273q60 63 110 123q112 138 113 281q0 350 -274 350q-145 0 -209 -99t-64 -255v-67h-20v67q0 165 70 269t223 104z" />
    <glyph glyph-name="three" unicode="3" 
d="M377 1444q155 0 225 -100t70 -263v-34q0 -101 -58 -185t-153 -112q102 -25 156 -103t55 -184v-109q0 -162 -71 -263t-225 -101t-224 101t-70 263v60h20v-60q0 -154 65 -249t210 -95t210 95t64 249v109q1 121 -65 195t-185 81h-108v19h108q113 8 182 91t68 198v34
q0 154 -64 249q-65 95 -210 95t-210 -95t-65 -249v-37h-20v37q0 163 70 263t225 100z" />
    <glyph glyph-name="four" unicode="4" horiz-adv-x="833" 
d="M602 369v1036l-500 -1036h500zM752 348h-129v-348h-21v348h-520v23l512 1065h29v-1067h129v-21z" />
    <glyph glyph-name="five" unicode="5" 
d="M672 557v-203q0 -160 -71 -262t-225 -102t-224 102t-70 262v54h20v-54q0 -152 66 -248t209 -96t209 96t65 248v203q0 152 -65 247q-66 95 -209 95q-184 0 -254 -178v-12h-21l37 727h506v-21h-487l-31 -643q76 148 239 148q162 0 234 -102t72 -261z" />
    <glyph glyph-name="six" unicode="6" horiz-adv-x="765" 
d="M383 823q-145 0 -213 -95t-68 -247v-127q0 -154 68 -249t213 -95t213 95t68 249v127q0 152 -68 247t-213 95zM82 1081q0 163 72 263t228 100t226 -97t70 -257v-7h-21v7q0 336 -274 335q-145 0 -213 -95t-68 -249v-444q63 207 281 207q157 0 229 -102t72 -261v-127
q0 -162 -73 -263t-229 -101t-228 101t-72 263v727z" />
    <glyph glyph-name="seven" unicode="7" 
d="M82 1415v21h590v-23l-443 -1413h-22l442 1415h-567z" />
    <glyph glyph-name="eight" unicode="8" horiz-adv-x="784" 
d="M682 436q0 301 -290 301t-290 -301v-94q0 -152 72 -242t218 -90t218 90t72 242v94zM391 1425q-143 0 -216 -87t-73 -234v-47q0 -299 290 -299t290 299v47q0 147 -74 234t-217 87zM82 1104q0 156 78 248t232 92q153 0 232 -92t78 -248v-47q0 -268 -217 -307
q217 -43 217 -314v-94q0 -160 -78 -256t-233 -96q-157 0 -233 96t-76 256v94q0 266 221 314q-221 43 -221 307v47z" />
    <glyph glyph-name="nine" unicode="9" horiz-adv-x="765" 
d="M383 1425q-145 0 -213 -95t-68 -249v-127q0 -152 68 -246t213 -96q145 0 213 96t68 246v127q0 154 -68 249t-213 95zM383 1446q157 0 229 -101t72 -264v-727q0 -162 -73 -263t-227 -101t-228 99t-74 259v8h20v-8q0 -152 68 -245t213 -93t213 95t68 249v445
q-63 -207 -281 -207q-157 0 -229 101t-72 261v127q0 161 72 263t229 102z" />
    <glyph glyph-name="colon" unicode=":" horiz-adv-x="184" 
d="M82 160h20v-160h-20v160zM82 940h20v-160h-20v160z" />
    <glyph glyph-name="semicolon" unicode=";" horiz-adv-x="215" 
d="M113 0v160h20v-160l-37 -127h-14l33 127h-2zM113 940h20v-160h-20v160z" />
    <glyph glyph-name="less" unicode="&#x3c;" horiz-adv-x="729" 
d="M647 440v-22l-565 289v20l565 289v-23l-541 -276z" />
    <glyph glyph-name="equal" unicode="=" horiz-adv-x="520" 
d="M82 668h356v-19h-356v19zM82 872h356v-18h-356v18z" />
    <glyph glyph-name="greater" unicode="&#x3e;" horiz-adv-x="729" 
d="M82 418v22l541 277l-541 276v23l565 -289v-20z" />
    <glyph glyph-name="question" unicode="?" horiz-adv-x="745" 
d="M334 158h20v-158h-20v158zM373 1444q291 0 291 -369q0 -143 -112 -279q-46 -56 -93 -112q-113 -136 -113 -289q0 -37 10 -73h-20q-10 41 -10 100t32 135q33 76 80 133q47 56 93 112q112 135 112 273q0 350 -270 350q-145 0 -207 -100t-64 -254v-67h-20v67q0 161 68 267
t223 106z" />
    <glyph glyph-name="at" unicode="@" horiz-adv-x="1409" 
d="M734 1067q-112 0 -171 -77t-74 -195l-20 -203q-12 -119 28 -203q41 -84 153 -84t171 84t72 207l22 201q11 117 -29 193t-152 77zM795 1483q266 1 399 -147t133 -418q0 -189 -61 -376q-33 -101 -102 -166t-144 -65q-135 0 -137 148q-68 -174 -234 -174q-123 0 -168 91
t-32 220l20 201q14 127 80 209t184 81q160 0 197 -153l14 141h21l-62 -579q-6 -66 18 -115t83 -49q88 0 151 63t94 161q56 175 58 359q0 263 -126 405t-386 142q-181 0 -319 -74t-217 -203q-157 -254 -157 -605q0 -639 605 -639q223 0 358 108v-26q-147 -102 -358 -103
q-625 0 -625 660q0 294 102 513q113 242 339 339q122 51 272 51z" />
    <glyph glyph-name="A" unicode="A" horiz-adv-x="925" 
d="M459 1409l-262 -1040h530zM733 348h-543l-88 -348h-20l362 1436h29l371 -1436h-21z" />
    <glyph glyph-name="B" unicode="B" horiz-adv-x="741" 
d="M102 20h260q276 0 277 308v129q0 161 -77 229t-238 68h-222v-734zM102 774h199q170 0 240 54t69 214v99q0 141 -54 207t-194 65h-260v-639zM82 1434h280q148 0 208 -73t61 -220v-99q0 -128 -46 -196t-167 -82q242 -29 241 -307v-129q0 -328 -297 -328h-280v1434z" />
    <glyph glyph-name="C" unicode="C" 
d="M377 1444q151 0 223 -102t72 -261v-108h-21v108q0 152 -65 247q-66 95 -209 95t-209 -95t-66 -247v-729q0 -152 66 -247t209 -95t209 95t65 247v152h21v-152q0 -160 -72 -261t-224 -101t-222 101q-72 101 -72 261v729q0 159 72 261t223 102z" />
    <glyph glyph-name="D" unicode="D" horiz-adv-x="761" 
d="M102 20h273q147 0 216 92t68 244v719q0 154 -69 246q-70 92 -217 92h-271v-1393zM82 1434h291q155 0 231 -98t76 -261v-719q0 -160 -75 -258t-230 -98h-293v1434z" />
    <glyph glyph-name="E" unicode="E" horiz-adv-x="700" 
d="M102 737h437v-20h-437v-697h516v-20h-536v1434h536v-21h-516v-676z" />
    <glyph glyph-name="F" unicode="F" horiz-adv-x="679" 
d="M102 700h416v-20h-416v-680h-20v1434h516v-21h-496v-713z" />
    <glyph glyph-name="G" unicode="G" 
d="M377 1444q151 0 223 -102t72 -261v-90h-21v90q0 152 -65 247q-66 95 -209 95t-209 -95t-66 -247v-729q0 -152 66 -247t209 -95t209 95t65 247v334h-241v21h262v-355q0 -160 -72 -261t-224 -101t-222 101q-72 101 -72 261v729q0 159 72 261t223 102z" />
    <glyph glyph-name="H" unicode="H" horiz-adv-x="757" 
d="M655 707h-553v-707h-20v1434h20v-707h553v707h21v-1434h-21v707z" />
    <glyph glyph-name="I" unicode="I" horiz-adv-x="184" 
d="M82 1434h20v-1434h-20v1434z" />
    <glyph glyph-name="J" unicode="J" horiz-adv-x="516" 
d="M414 1434h20v-1084q0 -170 -66 -254q-84 -108 -286 -96v20q33 -2 86 3q129 12 187 89t59 238v1084z" />
    <glyph glyph-name="K" unicode="K" horiz-adv-x="817" 
d="M102 0h-20v1434h20v-834l566 834h24l-463 -684l506 -750h-24l-494 731l-115 -168v-563z" />
    <glyph glyph-name="L" unicode="L" horiz-adv-x="679" 
d="M598 0h-516v1434h20v-1414h496v-20z" />
    <glyph glyph-name="M" unicode="M" horiz-adv-x="993" 
d="M102 0h-20v1434h37l377 -1407l381 1407h34v-1434h-20v1413l-381 -1409h-29l-379 1409v-1413z" />
    <glyph glyph-name="N" unicode="N" horiz-adv-x="759" 
d="M102 0h-20v1434h35l540 -1407v1407h21v-1434h-31l-545 1413v-1413z" />
    <glyph glyph-name="O" unicode="O" horiz-adv-x="763" 
d="M102 1081v-729q0 -154 67 -248t212 -94t213 94t68 248v729q0 152 -68 247t-213 95t-212 -95t-67 -247zM82 352v729q0 160 73 261q73 102 227 102t228 -102q72 -102 72 -261v-729q0 -160 -73 -261t-227 -101t-228 101q-72 101 -72 261z" />
    <glyph glyph-name="P" unicode="P" horiz-adv-x="731" 
d="M102 639h217q164 0 237 75t73 236v140q0 324 -271 323h-256v-774zM82 1434h276q291 0 291 -344v-140q0 -170 -80 -251t-250 -81h-217v-618h-20v1434z" />
    <glyph glyph-name="Q" unicode="Q" horiz-adv-x="847" 
d="M383 1423q-145 0 -213 -95t-68 -247v-729q0 -154 68 -248t213 -94t213 94t68 248v729q0 152 -68 247t-213 95zM383 1444q157 0 229 -102t72 -261v-729q0 -176 -82 -272q45 -72 141 -72h23v-20h-23q-104 0 -155 78q-76 -76 -218 -76t-216 101q-72 101 -72 261v729
q0 159 72 261t229 102z" />
    <glyph glyph-name="R" unicode="R" horiz-adv-x="772" 
d="M102 692h189q174 0 256 62t82 229v129q0 301 -271 301h-256v-721zM82 1434h276q291 0 291 -322v-129q0 -268 -239 -303q240 -33 239 -285v-225q0 -119 41 -170h-24q-37 57 -37 170v225q0 156 -87 216t-251 61h-189v-672h-20v1434z" />
    <glyph glyph-name="S" unicode="S" 
d="M670 1087v-24h-21v24q0 150 -64 243q-65 93 -207 93t-206 -92q-64 -93 -63 -219q0 -126 58 -206t141 -132q83 -53 165 -106t140 -134t59 -188q0 -160 -71 -258t-225 -98t-224 98t-70 258v68h20v-68q0 -152 66 -244t209 -92t209 92t65 244q0 102 -58 180t-140 130
t-165 106t-142 137q-58 82 -58 191q0 164 70 258t222 95q150 1 220 -98t70 -258z" />
    <glyph glyph-name="T" unicode="T" horiz-adv-x="772" 
d="M393 0h-20v1413h-324v21h668v-21h-324v-1413z" />
    <glyph glyph-name="U" unicode="U" horiz-adv-x="743" 
d="M102 1434v-1078q0 -154 64 -250t206 -96q144 0 207 96q62 96 62 250v1078h21v-1078q0 -162 -69 -264t-221 -102t-222 102q-68 102 -68 264v1078h20z" />
    <glyph glyph-name="V" unicode="V" horiz-adv-x="925" 
d="M82 1434h22l361 -1411l356 1411h23l-363 -1434h-30z" />
    <glyph glyph-name="W" unicode="W" horiz-adv-x="1282" 
d="M653 1405l-268 -1405h-31l-272 1434h20l269 -1405l266 1396h33l250 -1386l260 1395h20l-268 -1434h-27z" />
    <glyph glyph-name="X" unicode="X" horiz-adv-x="913" 
d="M809 0l-352 723l-351 -723h-24l364 745l-340 689h23l328 -666l327 666h23l-338 -689l362 -745h-22z" />
    <glyph glyph-name="Y" unicode="Y" horiz-adv-x="872" 
d="M424 0v594l-342 840h20l332 -811l334 811h23l-347 -840v-594h-20z" />
    <glyph glyph-name="Z" unicode="Z" horiz-adv-x="815" 
d="M721 20v-20h-639v23l627 1390h-596v21h618v-25l-627 -1389h617z" />
    <glyph glyph-name="bracketleft" unicode="[" horiz-adv-x="454" 
d="M102 20h271v-20h-291v1436h291v-21h-271v-1395z" />
    <glyph glyph-name="backslash" unicode="\" horiz-adv-x="749" 
d="M82 1434h20l566 -1434h-21z" />
    <glyph glyph-name="bracketright" unicode="]" horiz-adv-x="454" 
d="M82 20h270v1395h-270v21h291v-1436h-291v20z" />
    <glyph glyph-name="asciicircum" unicode="^" horiz-adv-x="851" 
d="M426 1411l-320 -610h-24l332 633h24l332 -633h-25z" />
    <glyph glyph-name="underscore" unicode="_" horiz-adv-x="1064" 
d="M82 -20h881v-19h-881v19z" />
    <glyph glyph-name="grave" unicode="`" horiz-adv-x="342" 
d="M82 1737h29l149 -176h-27z" />
    <glyph glyph-name="a" unicode="a" horiz-adv-x="925" 
d="M459 1409l-262 -1040h530zM733 348h-543l-88 -348h-20l362 1436h29l371 -1436h-21z" />
    <glyph glyph-name="b" unicode="b" horiz-adv-x="741" 
d="M102 20h260q276 0 277 308v129q0 161 -77 229t-238 68h-222v-734zM102 774h199q170 0 240 54t69 214v99q0 141 -54 207t-194 65h-260v-639zM82 1434h280q148 0 208 -73t61 -220v-99q0 -128 -46 -196t-167 -82q242 -29 241 -307v-129q0 -328 -297 -328h-280v1434z" />
    <glyph glyph-name="c" unicode="c" 
d="M377 1444q151 0 223 -102t72 -261v-108h-21v108q0 152 -65 247q-66 95 -209 95t-209 -95t-66 -247v-729q0 -152 66 -247t209 -95t209 95t65 247v152h21v-152q0 -160 -72 -261t-224 -101t-222 101q-72 101 -72 261v729q0 159 72 261t223 102z" />
    <glyph glyph-name="d" unicode="d" horiz-adv-x="761" 
d="M102 20h273q147 0 216 92t68 244v719q0 154 -69 246q-70 92 -217 92h-271v-1393zM82 1434h291q155 0 231 -98t76 -261v-719q0 -160 -75 -258t-230 -98h-293v1434z" />
    <glyph glyph-name="e" unicode="e" horiz-adv-x="700" 
d="M102 737h437v-20h-437v-697h516v-20h-536v1434h536v-21h-516v-676z" />
    <glyph glyph-name="f" unicode="f" horiz-adv-x="679" 
d="M102 700h416v-20h-416v-680h-20v1434h516v-21h-496v-713z" />
    <glyph glyph-name="g" unicode="g" 
d="M377 1444q151 0 223 -102t72 -261v-90h-21v90q0 152 -65 247q-66 95 -209 95t-209 -95t-66 -247v-729q0 -152 66 -247t209 -95t209 95t65 247v334h-241v21h262v-355q0 -160 -72 -261t-224 -101t-222 101q-72 101 -72 261v729q0 159 72 261t223 102z" />
    <glyph glyph-name="h" unicode="h" horiz-adv-x="757" 
d="M655 707h-553v-707h-20v1434h20v-707h553v707h21v-1434h-21v707z" />
    <glyph glyph-name="i" unicode="i" horiz-adv-x="184" 
d="M82 1434h20v-1434h-20v1434z" />
    <glyph glyph-name="j" unicode="j" horiz-adv-x="516" 
d="M414 1434h20v-1084q0 -170 -66 -254q-84 -108 -286 -96v20q33 -2 86 3q129 12 187 89t59 238v1084z" />
    <glyph glyph-name="k" unicode="k" horiz-adv-x="817" 
d="M102 0h-20v1434h20v-834l566 834h24l-463 -684l506 -750h-24l-494 731l-115 -168v-563z" />
    <glyph glyph-name="l" unicode="l" horiz-adv-x="679" 
d="M598 0h-516v1434h20v-1414h496v-20z" />
    <glyph glyph-name="m" unicode="m" horiz-adv-x="993" 
d="M102 0h-20v1434h37l377 -1407l381 1407h34v-1434h-20v1413l-381 -1409h-29l-379 1409v-1413z" />
    <glyph glyph-name="n" unicode="n" horiz-adv-x="759" 
d="M102 0h-20v1434h35l540 -1407v1407h21v-1434h-31l-545 1413v-1413z" />
    <glyph glyph-name="o" unicode="o" horiz-adv-x="763" 
d="M102 1081v-729q0 -154 67 -248t212 -94t213 94t68 248v729q0 152 -68 247t-213 95t-212 -95t-67 -247zM82 352v729q0 160 73 261q73 102 227 102t228 -102q72 -102 72 -261v-729q0 -160 -73 -261t-227 -101t-228 101q-72 101 -72 261z" />
    <glyph glyph-name="p" unicode="p" horiz-adv-x="731" 
d="M102 639h217q164 0 237 75t73 236v140q0 324 -271 323h-256v-774zM82 1434h276q291 0 291 -344v-140q0 -170 -80 -251t-250 -81h-217v-618h-20v1434z" />
    <glyph glyph-name="q" unicode="q" horiz-adv-x="788" 
d="M383 1423q-145 0 -213 -95t-68 -247v-729q0 -154 68 -248t213 -94t213 94t68 248v729q0 152 -68 247t-213 95zM383 1444q157 0 229 -102t72 -261v-729q0 -176 -82 -272q45 -72 141 -72h23v-20h-23q-104 0 -155 78q-76 -76 -218 -76t-216 101q-72 101 -72 261v729
q0 159 72 261t229 102z" />
    <glyph glyph-name="r" unicode="r" horiz-adv-x="772" 
d="M102 692h189q174 0 256 62t82 229v129q0 301 -271 301h-256v-721zM82 1434h276q291 0 291 -322v-129q0 -268 -239 -303q240 -33 239 -285v-225q0 -119 41 -170h-24q-37 57 -37 170v225q0 156 -87 216t-251 61h-189v-672h-20v1434z" />
    <glyph glyph-name="s" unicode="s" 
d="M670 1087v-24h-21v24q0 150 -64 243q-65 93 -207 93t-206 -92q-64 -93 -63 -219q0 -126 58 -206t141 -132q83 -53 165 -106t140 -134t59 -188q0 -160 -71 -258t-225 -98t-224 98t-70 258v68h20v-68q0 -152 66 -244t209 -92t209 92t65 244q0 102 -58 180t-140 130
t-165 106t-142 137q-58 82 -58 191q0 164 70 258t222 95q150 1 220 -98t70 -258z" />
    <glyph glyph-name="t" unicode="t" horiz-adv-x="755" 
d="M385 0h-20v1413h-324v21h668v-21h-324v-1413z" />
    <glyph glyph-name="u" unicode="u" horiz-adv-x="743" 
d="M102 1434v-1078q0 -154 64 -250t206 -96q144 0 207 96q62 96 62 250v1078h21v-1078q0 -162 -69 -264t-221 -102t-222 102q-68 102 -68 264v1078h20z" />
    <glyph glyph-name="v" unicode="v" horiz-adv-x="925" 
d="M82 1434h22l361 -1411l356 1411h23l-363 -1434h-30z" />
    <glyph glyph-name="w" unicode="w" horiz-adv-x="1282" 
d="M653 1405l-268 -1405h-31l-272 1434h20l269 -1405l266 1396h33l250 -1386l260 1395h20l-268 -1434h-27z" />
    <glyph glyph-name="x" unicode="x" horiz-adv-x="913" 
d="M809 0l-352 723l-351 -723h-24l364 745l-340 689h23l328 -666l327 666h23l-338 -689l362 -745h-22z" />
    <glyph glyph-name="y" unicode="y" horiz-adv-x="872" 
d="M424 0v594l-342 840h20l332 -811l334 811h23l-347 -840v-594h-20z" />
    <glyph glyph-name="z" unicode="z" horiz-adv-x="815" 
d="M721 20v-20h-639v23l627 1390h-596v21h618v-25l-627 -1389h617z" />
    <glyph glyph-name="braceleft" unicode="{" horiz-adv-x="524" 
d="M442 1415h-53q-83 0 -106 -54t-27 -130l-14 -287q-2 -66 -10 -102t-38 -73q-30 -36 -85 -52q81 -23 105 -75t28 -153l14 -284q6 -142 66 -171q27 -13 67 -14h53v-20h-53q-88 0 -118 52t-35 153l-15 284q-2 70 -9 104q-7 33 -38 65t-92 44v29q88 21 112 67t27 148l15 285
q6 98 35 151q30 53 118 54h53v-21z" />
    <glyph glyph-name="bar" unicode="|" horiz-adv-x="225" 
d="M102 1436h21v-1436h-21v1436z" />
    <glyph glyph-name="braceright" unicode="}" horiz-adv-x="524" 
d="M82 1436h53q88 0 118 -54t36 -151l14 -285q4 -94 19 -132q16 -38 45 -55t75 -28v-29q-88 -18 -112 -64t-27 -149l-14 -284q-6 -101 -36 -153t-118 -52h-53v20h53q83 0 106 53t27 132l15 284q4 100 27 153q24 52 106 75q-55 16 -86 52t-38 73t-9 102l-15 287
q-6 143 -65 171q-27 13 -68 13h-53v21z" />
    <glyph glyph-name="asciitilde" unicode="~" horiz-adv-x="813" 
d="M250 788q66 2 174 -64t162 -62q74 4 127 108l18 -10q-61 -115 -143 -119q-61 -3 -170 63t-168 64q-90 0 -152 -106l-16 10q66 114 168 116z" />
    <glyph glyph-name="uni00A0" unicode="&#xa0;" horiz-adv-x="317" 
 />
    <glyph glyph-name="exclamdown" unicode="&#xa1;" horiz-adv-x="184" 
d="M82 0v707l2 411h16l2 -411v-707h-20zM82 1436h20v-158h-20v158z" />
    <glyph glyph-name="cent" unicode="&#xa2;" horiz-adv-x="751" 
d="M385 1434v-93q147 -2 216 -97t69 -251v-45h-21v45q0 328 -274 328q-143 0 -208 -95t-65 -247v-520q0 -152 65 -247t208 -95t209 93t65 245v82h21v-82q0 -158 -69 -256t-216 -103v-96h-20v96q-147 4 -215 104t-68 259v520q0 158 68 258t215 104v93h20z" />
    <glyph glyph-name="sterling" unicode="&#xa3;" horiz-adv-x="780" 
d="M399 1444q154 0 221 -106t66 -269v-55h-20v55q0 354 -268 354t-269 -348q0 -106 31 -192t77 -175t66 -161h332v-21h-326q23 -104 -19 -223t-181 -283h589v-20h-616v20q113 133 173 256t32 250h-181v21h177q-20 72 -68 161q-47 89 -77 175t-29 192q-1 369 290 369z" />
    <glyph glyph-name="currency" unicode="&#xa4;" horiz-adv-x="661" 
d="M330 913q-82 0 -140 -57t-57 -139q0 -82 57 -139q58 -58 140 -58t140 58t58 139q0 82 -58 139t-140 57zM549 717q0 -84 -57 -148l88 -86l-15 -14l-88 86q-61 -55 -146 -55t-147 55l-88 -86l-14 14l88 86q-57 63 -57 147t57 146l-88 88l14 15l88 -88q60 57 146 57t147 -57
l88 88l15 -15l-88 -88q57 -61 57 -145z" />
    <glyph glyph-name="yen" unicode="&#xa5;" horiz-adv-x="921" 
d="M715 545h-244v-180h244v-21h-244v-344h-20v344h-242v21h242v180h-242v20h240l-367 869h22l357 -842l358 842h21l-369 -869h244v-20z" />
    <glyph glyph-name="brokenbar" unicode="&#xa6;" horiz-adv-x="227" 
d="M102 0v596h23v-596h-23zM102 838v596h23v-596h-23z" />
    <glyph glyph-name="section" unicode="&#xa7;" 
d="M381 924q-109 -18 -191 -88t-82 -180t97 -177q63 -44 131 -74q69 -30 78 -34q236 82 235 270q0 113 -77 172q-78 59 -191 111zM664 1190v-19h-21v19q0 104 -75 168q-76 64 -186 64q-110 1 -192 -52q-82 -52 -84 -146t56 -150t140 -93q83 -37 167 -76t142 -105t59 -159
q0 -190 -230 -283q115 -51 175 -108q59 -56 57 -158t-91 -162t-207 -61q-118 1 -205 67t-87 187v47h20v-47q0 -113 81 -173t189 -60t193 54q84 54 87 137t-38 136t-104 83t-137 65t-137 67q-148 76 -148 244q0 92 76 164t184 98q-117 54 -171 94q-54 41 -74 83
q-19 42 -17 95q2 114 90 174t207 59t200 -70t81 -183z" />
    <glyph glyph-name="dieresis" unicode="&#xa8;" horiz-adv-x="319" 
d="M217 1696h21v-160h-21v160zM82 1696h20v-160h-20v160z" />
    <glyph glyph-name="copyright" unicode="&#xa9;" horiz-adv-x="1544" 
d="M763 1165q105 0 156 -70q50 -71 50 -182v-34h-21v34q0 231 -184 232q-186 0 -186 -232v-393q0 -233 186 -233q96 -1 140 65t44 168v51h21v-51q0 -110 -50 -182q-49 -72 -155 -72t-157 72q-50 72 -50 182v393q0 111 50 182q51 70 156 70zM772 1405q-293 0 -481 -198
q-189 -199 -189 -491t188 -491t482 -199q293 0 481 200q188 198 189 491q0 293 -188 491t-482 197zM772 1425q301 -1 496 -203q194 -202 194 -505t-194 -506t-496 -203q-301 0 -496 203t-194 506q0 303 194 506q195 202 496 202z" />
    <glyph glyph-name="ordfeminine" unicode="&#xaa;" horiz-adv-x="552" 
d="M86 526h385v-20h-385v20zM102 872q0 -80 40 -126t121 -46t129 66t59 158v161q-348 -4 -349 -206v-7zM299 1444q172 0 172 -221v-533h-20v144q-53 -154 -191 -154q-86 0 -132 52t-46 140v7q0 223 369 227v117q0 201 -152 200q-166 0 -166 -200v-15h-20v15q0 221 186 221z
" />
    <glyph glyph-name="guillemotleft" unicode="&#xab;" horiz-adv-x="503" 
d="M401 233l-137 486l137 487h21l-137 -487l137 -486h-21zM219 233l-137 486l137 487h21l-138 -487l138 -486h-21z" />
    <glyph glyph-name="logicalnot" unicode="&#xac;" horiz-adv-x="759" 
d="M657 709h-575v18h596v-291h-21v273z" />
    <glyph glyph-name="uni00AD" unicode="&#xad;" horiz-adv-x="520" 
d="M82 709v18h356v-18h-356z" />
    <glyph glyph-name="registered" unicode="&#xae;" horiz-adv-x="1544" 
d="M604 700h148q110 0 160 46t51 153v29q0 207 -185 207h-174v-435zM584 1155h194q205 0 205 -227v-29q0 -176 -143 -211q145 -35 145 -196v-95q0 -88 29 -118h-25q-25 41 -24 118v95q1 108 -61 148t-177 40h-123v-401h-20v876zM772 1405q-293 0 -481 -198
q-189 -199 -189 -491t188 -491t482 -199q293 0 481 200q188 198 189 491q0 293 -188 491t-482 197zM772 1425q301 -1 496 -203q194 -202 194 -505t-194 -506t-496 -203q-301 0 -496 203t-194 506q0 303 194 506q195 202 496 202z" />
    <glyph glyph-name="macron" unicode="&#xaf;" horiz-adv-x="520" 
d="M82 1554h356v-18h-356v18z" />
    <glyph glyph-name="degree" unicode="&#xb0;" horiz-adv-x="409" 
d="M205 1430q-43 0 -73 -28t-30 -71t30 -71t73 -29q43 0 73 29q30 30 30 72t-30 70t-73 28zM205 1450q51 0 87 -34t36 -85t-36 -86t-87 -35t-87 35t-36 86t36 85t87 34z" />
    <glyph glyph-name="plusminus" unicode="&#xb1;" horiz-adv-x="786" 
d="M82 420h301v287h-301v20h301v303h20v-303h302v-20h-302v-287h302v-21h-623v21z" />
    <glyph glyph-name="twosuperior" unicode="&#xb2;" horiz-adv-x="544" 
d="M272 1638q190 0 191 -237q0 -121 -124 -247q-53 -52 -105 -107t-91 -135t-41 -169v-4h353v-20h-373v10q0 96 37 179q37 82 90 140t106 111q129 129 127 242q0 217 -170 217t-170 -221v-43h-20v43q0 105 45 173t145 68z" />
    <glyph glyph-name="threesuperior" unicode="&#xb3;" horiz-adv-x="544" 
d="M272 1638q98 0 145 -65q46 -66 46 -168v-23q0 -63 -33 -115t-90 -73q123 -39 123 -182v-70q0 -102 -46 -168q-47 -66 -145 -66t-144 66t-46 168v39h20v-39q0 -213 170 -213t170 213v70q0 72 -42 121t-113 49h-68v20h68q69 0 113 55t42 125v23q0 213 -170 213t-170 -213
v-25h-20v25q0 101 46 167t144 66z" />
    <glyph glyph-name="acute" unicode="&#xb4;" horiz-adv-x="342" 
d="M231 1737h29l-151 -176h-27z" />
    <glyph glyph-name="uni00B5" unicode="&#xb5;" horiz-adv-x="821" 
d="M406 0q-111 0 -180 61t-91 164l2 -411h-20v1210h20v-662q-1 -154 63 -248t204 -96q140 0 206 96t66 248v662h20v-1024h-20l2 231q-53 -231 -272 -231z" />
    <glyph glyph-name="paragraph" unicode="&#xb6;" horiz-adv-x="811" 
d="M674 1413h-338v-1536h-21v741q-143 8 -199 88t-57 246v150q1 164 53 247t203 85h379v-1557h-20v1536z" />
    <glyph glyph-name="periodcentered" unicode="&#xb7;" horiz-adv-x="184" 
d="M82 827h20v-159h-20v159z" />
    <glyph glyph-name="cedilla" unicode="&#xb8;" horiz-adv-x="503" 
d="M268 0v-80q154 -4 154 -110q0 -60 -52 -92t-117 -30t-118 32t-53 92v6h20v-6q0 -51 48 -77t103 -27q56 -1 102 25t46 77q0 92 -143 92h-10v98h20z" />
    <glyph glyph-name="onesuperior" unicode="&#xb9;" horiz-adv-x="337" 
d="M256 1628v-909h-20v868q-50 -96 -152 -108l-2 20q111 12 147 129h27z" />
    <glyph glyph-name="ordmasculine" unicode="&#xba;" horiz-adv-x="552" 
d="M86 530h385v-20h-385v20zM276 1423q-90 0 -132 -59t-42 -154v-305q0 -94 42 -153q42 -60 132 -60t132 60t43 153v305q0 94 -42 154q-43 59 -133 59zM276 1444q100 0 148 -65t47 -169v-305q0 -104 -47 -169q-48 -64 -148 -64t-147 64t-47 169v305q0 104 47 169t147 65z
" />
    <glyph glyph-name="guillemotright" unicode="&#xbb;" horiz-adv-x="503" 
d="M264 233l137 486l-137 487h21l137 -487l-137 -486h-21zM82 233l137 486l-137 487h20l138 -487l-138 -486h-20z" />
    <glyph glyph-name="onequarter" unicode="&#xbc;" horiz-adv-x="966" 
d="M786 236v638l-307 -638h307zM807 215v-215h-21v215h-331v21l325 673h27v-673h78v-21h-78zM762 1434l-565 -1434h-21l565 1434h21zM236 524v869q-49 -96 -152 -109l-2 21q111 12 147 129h27v-910h-20z" />
    <glyph glyph-name="onehalf" unicode="&#xbd;" horiz-adv-x="1110" 
d="M838 920q190 0 190 -238q0 -121 -124 -247q-52 -52 -104 -107t-91 -134t-41 -169v-5h352v-20h-373v10q0 96 37 179t90 141t107 110q127 127 127 242q0 217 -170 217t-170 -221v-43h-21v43q0 106 45 174q46 68 146 68zM741 1434h21l-565 -1434h-21zM236 524v869
q-49 -96 -152 -109l-2 21q111 12 147 129h27v-910h-20z" />
    <glyph glyph-name="threequarters" unicode="&#xbe;" horiz-adv-x="1126" 
d="M946 236v638l-307 -638h307zM946 0v215h-332v21l326 673h27v-673h77v-21h-77v-215h-21zM336 0l565 1434h21l-566 -1434h-20zM272 1444q98 0 144 -66t47 -168v-22q0 -64 -33 -116t-90 -73q123 -39 123 -182v-69q0 -102 -46 -168q-47 -66 -145 -66t-144 66t-46 168v38h20
v-38q0 -213 170 -213t170 213v69q0 72 -42 121t-113 49h-68v21h68q69 0 113 55t42 125v22q0 213 -170 213t-170 -213v-24h-20v24q0 102 46 168t144 66z" />
    <glyph glyph-name="questiondown" unicode="&#xbf;" horiz-adv-x="745" 
d="M420 1012q0 -60 -33 -136t-80 -132q-47 -58 -93 -113q-112 -134 -112 -273q0 -350 271 -350q145 0 207 100t63 254v68h21v-68q0 -162 -69 -267t-222 -105q-291 0 -291 368q0 144 112 280q46 56 93 112q114 137 112 288q0 37 -10 74h21q10 -40 10 -100zM391 1434h21v-158
h-21v158z" />
    <glyph glyph-name="Agrave" unicode="&#xc0;" horiz-adv-x="925" 
d="M459 1409l-262 -1040h530zM733 348h-543l-88 -348h-20l362 1436h29l371 -1436h-21zM338 1686h29l149 -177h-27z" />
    <glyph glyph-name="Aacute" unicode="&#xc1;" horiz-adv-x="925" 
d="M459 1409l-262 -1040h530zM733 348h-543l-88 -348h-20l362 1436h29l371 -1436h-21zM530 1688h29l-151 -177h-27z" />
    <glyph glyph-name="Acircumflex" unicode="&#xc2;" horiz-adv-x="925" 
d="M459 1409l-262 -1040h530zM733 348h-543l-88 -348h-20l362 1436h29l371 -1436h-21zM459 1649l-146 -140h-28l166 160h14l168 -160h-31z" />
    <glyph glyph-name="Atilde" unicode="&#xc3;" horiz-adv-x="925" 
d="M459 1409l-262 -1040h530zM733 348h-543l-88 -348h-20l362 1436h29l371 -1436h-21zM359 1618q-41 0 -76 -64l-19 11q42 71 103 73q39 2 102 -39t96 -39t66 64l18 -10q-37 -72 -88 -74q-35 -2 -98 38t-104 40z" />
    <glyph glyph-name="Adieresis" unicode="&#xc4;" horiz-adv-x="925" 
d="M459 1409l-262 -1040h530zM733 348h-543l-88 -348h-20l362 1436h29l371 -1436h-21zM516 1669h21v-160h-21v160zM381 1669h20v-160h-20v160z" />
    <glyph glyph-name="Aring" unicode="&#xc5;" horiz-adv-x="925" 
d="M459 1409l-262 -1040h530zM733 348h-543l-88 -348h-20l362 1436h29l371 -1436h-21zM457 1739q-43 0 -73 -28t-30 -71q0 -44 30 -72t73 -28t73 29t29 71q1 42 -29 71q-30 28 -73 28zM457 1759q51 0 87 -34t36 -85t-36 -86q-36 -34 -87 -34t-87 34t-36 86q0 51 36 85t87 34
z" />
    <glyph glyph-name="AE" unicode="&#xc6;" horiz-adv-x="1216" 
d="M678 377v1036l-422 -1036h422zM698 737h369v-20h-369v-697h437v-20h-457v356h-430l-146 -356h-20l582 1434h471v-21h-437v-676z" />
    <glyph glyph-name="Ccedilla" unicode="&#xc7;" 
d="M377 1444q151 0 223 -102t72 -261v-108h-21v108q0 152 -65 247q-66 95 -209 95t-209 -95t-66 -247v-729q0 -152 66 -247t209 -95t209 95t65 247v152h21v-152q0 -156 -69 -257t-216 -105v-70q154 -4 154 -110q-1 -60 -53 -92t-116 -30t-118 32q-53 30 -53 92v6h20v-6
q0 -51 47 -77q48 -26 104 -27t102 25t46 77q0 92 -143 92h-10v88q-147 4 -216 105t-69 257v729q0 159 72 261t223 102z" />
    <glyph glyph-name="Egrave" unicode="&#xc8;" horiz-adv-x="700" 
d="M102 737h437v-20h-437v-697h516v-20h-536v1434h536v-21h-516v-676zM252 1718h29l149 -176h-27z" />
    <glyph glyph-name="Eacute" unicode="&#xc9;" horiz-adv-x="700" 
d="M102 737h437v-20h-437v-697h516v-20h-536v1434h536v-21h-516v-676zM451 1696h28l-151 -176h-27z" />
    <glyph glyph-name="Ecircumflex" unicode="&#xca;" horiz-adv-x="700" 
d="M102 737h437v-20h-437v-697h516v-20h-536v1434h536v-21h-516v-676zM350 1663l-145 -139h-29l166 159h14l168 -159h-30z" />
    <glyph glyph-name="Edieresis" unicode="&#xcb;" horiz-adv-x="700" 
d="M102 737h437v-20h-437v-697h516v-20h-536v1434h536v-21h-516v-676zM408 1679h20v-159h-20v159zM272 1679h21v-159h-21v159z" />
    <glyph glyph-name="Igrave" unicode="&#xcc;" horiz-adv-x="184" 
d="M82 0v1434h20v-1434h-20zM102 1520l-151 176h29l149 -176h-27z" />
    <glyph glyph-name="Iacute" unicode="&#xcd;" horiz-adv-x="184" 
d="M82 0v1434h20v-1434h-20zM37 1522l149 176h29l-152 -176h-26z" />
    <glyph glyph-name="Icircumflex" unicode="&#xce;" horiz-adv-x="184" 
d="M82 0v1434h20v-1434h-20zM84 1679h14l168 -159h-30l-144 139l-145 -139h-29z" />
    <glyph glyph-name="Idieresis" unicode="&#xcf;" horiz-adv-x="184" 
d="M82 1434h20v-1434h-20v1434zM150 1681h20v-159h-20v159zM14 1681h21v-159h-21v159z" />
    <glyph glyph-name="Eth" unicode="&#xd0;" horiz-adv-x="761" 
d="M309 727v-18h-207v-689h273q147 0 216 92t68 244v719q0 154 -69 246q-70 92 -217 92h-271v-686h207zM82 1434h291q155 0 231 -98t76 -261v-719q0 -160 -75 -258t-230 -98h-293v709h-107v18h107v707z" />
    <glyph glyph-name="Ntilde" unicode="&#xd1;" horiz-adv-x="759" 
d="M102 0h-20v1434h35l540 -1407v1407h21v-1434h-31l-545 1413v-1413zM285 1645q-41 0 -76 -64l-19 10q41 72 103 74q39 2 102 -39q63 -40 96 -38t66 63l18 -11q-37 -72 -88 -73q-35 -2 -98 38t-104 40z" />
    <glyph glyph-name="Ograve" unicode="&#xd2;" horiz-adv-x="763" 
d="M381 1423q-145 0 -212 -95t-67 -247v-729q0 -154 67 -248t212 -94t213 94t68 248v729q0 152 -68 247t-213 95zM82 1081q0 159 72 261t228 102t228 -102t72 -261v-729q0 -160 -73 -261t-227 -101t-228 101q-72 101 -72 261v729zM258 1716h29l149 -176h-26z" />
    <glyph glyph-name="Oacute" unicode="&#xd3;" horiz-adv-x="763" 
d="M381 1423q-145 0 -212 -95t-67 -247v-729q0 -154 67 -248t212 -94t213 94t68 248v729q0 152 -68 247t-213 95zM82 1081q0 159 72 261t228 102t228 -102t72 -261v-729q0 -160 -73 -261t-227 -101t-228 101q-72 101 -72 261v729zM475 1716h29l-152 -176h-26z" />
    <glyph glyph-name="Ocircumflex" unicode="&#xd4;" horiz-adv-x="763" 
d="M381 1423q-145 0 -212 -95t-67 -247v-729q0 -154 67 -248t212 -94t213 94t68 248v729q0 152 -68 247t-213 95zM82 1081q0 159 72 261t228 102t228 -102t72 -261v-729q0 -160 -73 -261t-227 -101t-228 101q-72 101 -72 261v729zM381 1675l-145 -139h-29l166 160h14
l168 -160h-31z" />
    <glyph glyph-name="Otilde" unicode="&#xd5;" horiz-adv-x="763" 
d="M381 1423q-145 0 -212 -95t-67 -247v-729q0 -154 67 -248t212 -94t213 94t68 248v729q0 152 -68 247t-213 95zM82 1081q0 159 72 261t228 102t228 -102t72 -261v-729q0 -160 -73 -261t-227 -101t-228 101q-72 101 -72 261v729zM295 1636q-41 0 -76 -63l-18 10
q41 72 102 74q39 2 103 -39t96 -39t65 63l19 -10q-37 -72 -88 -73q-34 -3 -98 37t-105 40z" />
    <glyph glyph-name="Odieresis" unicode="&#xd6;" horiz-adv-x="763" 
d="M381 1423q-145 0 -212 -95t-67 -247v-729q0 -154 67 -248t212 -94t213 94t68 248v729q0 152 -68 247t-213 95zM82 1081q0 159 72 261t228 102t228 -102t72 -261v-729q0 -160 -73 -261t-227 -101t-228 101q-72 101 -72 261v729zM438 1696h21v-160h-21v160zM303 1696h21
v-160h-21v160z" />
    <glyph glyph-name="multiply" unicode="&#xd7;" horiz-adv-x="622" 
d="M541 500l-15 -15l-215 215l-215 -215l-14 15l215 215l-215 215l14 14l215 -215l215 215l15 -14l-215 -215z" />
    <glyph glyph-name="Oslash" unicode="&#xd8;" horiz-adv-x="763" 
d="M376 10q150 0 218 94t68 248v729q-1 125 -46 209l-460 -1169q70 -111 220 -111zM386 1423q-150 0 -217 -95t-67 -247v-729q0 -125 41 -209l461 1168q-68 112 -218 112zM82 1081q0 159 72 261t226 102q153 0 234 -109l39 99l17 -7l-43 -112q55 -90 55 -234v-729
q0 -160 -73 -261t-229 -101t-233 110l-43 -106l-16 6l47 119q-53 92 -53 233v729z" />
    <glyph glyph-name="Ugrave" unicode="&#xd9;" horiz-adv-x="743" 
d="M662 1434v-1078q0 -162 -69 -264t-221 -102t-222 102q-68 102 -68 264v1078h20v-1078q0 -154 64 -250t206 -96q144 0 207 96q62 96 62 250v1078h21zM246 1698h28l150 -176h-27z" />
    <glyph glyph-name="Uacute" unicode="&#xda;" horiz-adv-x="743" 
d="M662 1434v-1078q0 -162 -69 -264t-221 -102t-222 102q-68 102 -68 264v1078h20v-1078q0 -154 64 -250t206 -96q144 0 207 96q62 96 62 250v1078h21zM485 1716h29l-152 -176h-26z" />
    <glyph glyph-name="Ucircumflex" unicode="&#xdb;" horiz-adv-x="743" 
d="M662 1434v-1078q0 -162 -69 -264t-221 -102t-222 102q-68 102 -68 264v1078h20v-1078q0 -154 64 -250t206 -96q144 0 207 96q62 96 62 250v1078h21zM375 1675l-146 -139h-28l166 160h14l168 -160h-31z" />
    <glyph glyph-name="Udieresis" unicode="&#xdc;" horiz-adv-x="743" 
d="M662 1434v-1078q0 -162 -69 -264t-221 -102t-222 102q-68 102 -68 264v1078h20v-1078q0 -154 64 -250t206 -96q144 0 207 96q62 96 62 250v1078h21zM428 1690h21v-160h-21v160zM293 1690h20v-160h-20v160z" />
    <glyph glyph-name="Yacute" unicode="&#xdd;" horiz-adv-x="872" 
d="M424 0v594l-342 840h20l332 -811l334 811h23l-347 -840v-594h-20zM545 1696h28l-151 -176h-27z" />
    <glyph glyph-name="Thorn" unicode="&#xde;" horiz-adv-x="772" 
d="M102 340h217q164 0 237 75t73 236v140q0 324 -271 323h-256v-774zM102 1135h256q291 0 291 -344v-140q0 -170 -80 -251t-250 -81h-217v-319h-20v1434h20v-299z" />
    <glyph glyph-name="germandbls" unicode="&#xdf;" horiz-adv-x="1415" 
d="M758 1090q0 350 291 354q151 0 221 -99t69 -258v-24h-20v24q0 150 -65 243q-64 93 -206 93t-206 -92t-64 -241q0 -104 58 -184t142 -132q83 -53 165 -106t140 -134t58 -188q-1 -160 -71 -258t-224 -98t-224 98q-71 98 -70 258v68h20v-68q0 -152 66 -244t209 -92t209 92
t65 244q0 102 -58 180q-59 78 -141 130t-165 106t-141 137q-58 82 -58 191zM78 1090q0 350 291 354q151 0 221 -99t69 -258v-24h-20v24q0 150 -65 243q-64 93 -206 93t-206 -92t-64 -241q0 -104 58 -184t142 -132q83 -53 165 -106t140 -134t59 -188q0 -160 -71 -258
t-225 -98t-224 98q-71 98 -70 258v68h20v-68q0 -152 66 -244t209 -92t209 92t65 244q0 102 -58 180q-59 78 -141 130t-164 106t-142 137q-58 82 -58 191z" />
    <glyph glyph-name="agrave" unicode="&#xe0;" horiz-adv-x="925" 
d="M459 1409l-262 -1040h530zM733 348h-543l-88 -348h-20l362 1436h29l371 -1436h-21zM338 1686h29l149 -177h-27z" />
    <glyph glyph-name="aacute" unicode="&#xe1;" horiz-adv-x="925" 
d="M459 1409l-262 -1040h530zM733 348h-543l-88 -348h-20l362 1436h29l371 -1436h-21zM530 1688h29l-151 -177h-27z" />
    <glyph glyph-name="acircumflex" unicode="&#xe2;" horiz-adv-x="925" 
d="M459 1409l-262 -1040h530zM733 348h-543l-88 -348h-20l362 1436h29l371 -1436h-21zM459 1649l-146 -140h-28l166 160h14l168 -160h-31z" />
    <glyph glyph-name="atilde" unicode="&#xe3;" horiz-adv-x="925" 
d="M459 1409l-262 -1040h530zM733 348h-543l-88 -348h-20l362 1436h29l371 -1436h-21zM359 1618q-41 0 -76 -64l-19 11q42 71 103 73q39 2 102 -39t96 -39t66 64l18 -10q-37 -72 -88 -74q-35 -2 -98 38t-104 40z" />
    <glyph glyph-name="adieresis" unicode="&#xe4;" horiz-adv-x="925" 
d="M459 1409l-262 -1040h530zM733 348h-543l-88 -348h-20l362 1436h29l371 -1436h-21zM516 1669h21v-160h-21v160zM381 1669h20v-160h-20v160z" />
    <glyph glyph-name="aring" unicode="&#xe5;" horiz-adv-x="925" 
d="M459 1409l-262 -1040h530zM733 348h-543l-88 -348h-20l362 1436h29l371 -1436h-21zM457 1739q-43 0 -73 -28t-30 -71q0 -44 30 -72t73 -28t73 29t29 71q1 42 -29 71q-30 28 -73 28zM457 1759q51 0 87 -34t36 -85t-36 -86q-36 -34 -87 -34t-87 34t-36 86q0 51 36 85t87 34
z" />
    <glyph glyph-name="ae" unicode="&#xe6;" horiz-adv-x="1216" 
d="M678 377v1036l-422 -1036h422zM698 737h369v-20h-369v-697h437v-20h-457v356h-430l-146 -356h-20l582 1434h471v-21h-437v-676z" />
    <glyph glyph-name="ccedilla" unicode="&#xe7;" 
d="M377 1444q151 0 223 -102t72 -261v-108h-21v108q0 152 -65 247q-66 95 -209 95t-209 -95t-66 -247v-729q0 -152 66 -247t209 -95t209 95t65 247v152h21v-152q0 -156 -69 -257t-216 -105v-70q154 -4 154 -110q-1 -60 -53 -92t-116 -30t-118 32q-53 30 -53 92v6h20v-6
q0 -51 47 -77q48 -26 104 -27t102 25t46 77q0 92 -143 92h-10v88q-147 4 -216 105t-69 257v729q0 159 72 261t223 102z" />
    <glyph glyph-name="egrave" unicode="&#xe8;" horiz-adv-x="700" 
d="M102 737h437v-20h-437v-697h516v-20h-536v1434h536v-21h-516v-676zM252 1718h29l149 -176h-27z" />
    <glyph glyph-name="eacute" unicode="&#xe9;" horiz-adv-x="700" 
d="M102 737h437v-20h-437v-697h516v-20h-536v1434h536v-21h-516v-676zM451 1696h28l-151 -176h-27z" />
    <glyph glyph-name="ecircumflex" unicode="&#xea;" horiz-adv-x="700" 
d="M102 737h437v-20h-437v-697h516v-20h-536v1434h536v-21h-516v-676zM350 1663l-145 -139h-29l166 159h14l168 -159h-30z" />
    <glyph glyph-name="edieresis" unicode="&#xeb;" horiz-adv-x="700" 
d="M102 737h437v-20h-437v-697h516v-20h-536v1434h536v-21h-516v-676zM408 1679h20v-159h-20v159zM272 1679h21v-159h-21v159z" />
    <glyph glyph-name="igrave" unicode="&#xec;" horiz-adv-x="184" 
d="M82 0v1434h20v-1434h-20zM102 1520l-151 176h29l149 -176h-27z" />
    <glyph glyph-name="iacute" unicode="&#xed;" horiz-adv-x="184" 
d="M82 0v1434h20v-1434h-20zM37 1522l149 176h29l-152 -176h-26z" />
    <glyph glyph-name="icircumflex" unicode="&#xee;" horiz-adv-x="184" 
d="M82 0v1434h20v-1434h-20zM84 1679h14l168 -159h-30l-144 139l-145 -139h-29z" />
    <glyph glyph-name="idieresis" unicode="&#xef;" horiz-adv-x="184" 
d="M82 1434h20v-1434h-20v1434zM150 1681h20v-159h-20v159zM14 1681h21v-159h-21v159z" />
    <glyph glyph-name="eth" unicode="&#xf0;" horiz-adv-x="761" 
d="M311 723v-18h-209v-685h273q147 0 216 92t68 244v719q0 154 -69 246q-70 92 -217 92h-271v-690h209zM82 1434h291q155 0 231 -98t76 -261v-719q0 -160 -75 -258t-230 -98h-293v705h-94v18h94v711z" />
    <glyph glyph-name="ntilde" unicode="&#xf1;" horiz-adv-x="759" 
d="M102 0h-20v1434h35l540 -1407v1407h21v-1434h-31l-545 1413v-1413zM285 1645q-41 0 -76 -64l-19 10q41 72 103 74q39 2 102 -39q63 -40 96 -38t66 63l18 -11q-37 -72 -88 -73q-35 -2 -98 38t-104 40z" />
    <glyph glyph-name="ograve" unicode="&#xf2;" horiz-adv-x="763" 
d="M381 1423q-145 0 -212 -95t-67 -247v-729q0 -154 67 -248t212 -94t213 94t68 248v729q0 152 -68 247t-213 95zM82 1081q0 159 72 261t228 102t228 -102t72 -261v-729q0 -160 -73 -261t-227 -101t-228 101q-72 101 -72 261v729zM258 1716h29l149 -176h-26z" />
    <glyph glyph-name="oacute" unicode="&#xf3;" horiz-adv-x="763" 
d="M381 1423q-145 0 -212 -95t-67 -247v-729q0 -154 67 -248t212 -94t213 94t68 248v729q0 152 -68 247t-213 95zM82 1081q0 159 72 261t228 102t228 -102t72 -261v-729q0 -160 -73 -261t-227 -101t-228 101q-72 101 -72 261v729zM475 1716h29l-152 -176h-26z" />
    <glyph glyph-name="ocircumflex" unicode="&#xf4;" horiz-adv-x="763" 
d="M381 1423q-145 0 -212 -95t-67 -247v-729q0 -154 67 -248t212 -94t213 94t68 248v729q0 152 -68 247t-213 95zM82 1081q0 159 72 261t228 102t228 -102t72 -261v-729q0 -160 -73 -261t-227 -101t-228 101q-72 101 -72 261v729zM381 1675l-145 -139h-29l166 160h14
l168 -160h-31z" />
    <glyph glyph-name="otilde" unicode="&#xf5;" horiz-adv-x="763" 
d="M381 1423q-145 0 -212 -95t-67 -247v-729q0 -154 67 -248t212 -94t213 94t68 248v729q0 152 -68 247t-213 95zM82 1081q0 159 72 261t228 102t228 -102t72 -261v-729q0 -160 -73 -261t-227 -101t-228 101q-72 101 -72 261v729zM295 1636q-41 0 -76 -63l-18 10
q41 72 102 74q39 2 103 -39t96 -39t65 63l19 -10q-37 -72 -88 -73q-34 -3 -98 37t-105 40z" />
    <glyph glyph-name="odieresis" unicode="&#xf6;" horiz-adv-x="763" 
d="M381 1423q-145 0 -212 -95t-67 -247v-729q0 -154 67 -248t212 -94t213 94t68 248v729q0 152 -68 247t-213 95zM82 1081q0 159 72 261t228 102t228 -102t72 -261v-729q0 -160 -73 -261t-227 -101t-228 101q-72 101 -72 261v729zM438 1696h21v-160h-21v160zM303 1696h21
v-160h-21v160z" />
    <glyph glyph-name="divide" unicode="&#xf7;" horiz-adv-x="520" 
d="M248 637h20v-160h-20v160zM82 727h356v-18h-356v18zM248 958h20v-159h-20v159z" />
    <glyph glyph-name="oslash" unicode="&#xf8;" horiz-adv-x="763" 
d="M376 10q150 0 218 94t68 248v729q-1 125 -46 209l-460 -1169q70 -111 220 -111zM386 1423q-150 0 -217 -95t-67 -247v-729q0 -125 41 -209l461 1168q-68 112 -218 112zM82 1081q0 159 72 261t226 102q153 0 234 -109l39 99l17 -7l-43 -112q55 -90 55 -234v-729
q0 -160 -73 -261t-229 -101t-233 110l-43 -106l-16 6l47 119q-53 92 -53 233v729z" />
    <glyph glyph-name="ugrave" unicode="&#xf9;" horiz-adv-x="743" 
d="M662 1434v-1078q0 -162 -69 -264t-221 -102t-222 102q-68 102 -68 264v1078h20v-1078q0 -154 64 -250t206 -96q144 0 207 96q62 96 62 250v1078h21zM246 1698h28l150 -176h-27z" />
    <glyph glyph-name="uacute" unicode="&#xfa;" horiz-adv-x="743" 
d="M662 1434v-1078q0 -162 -69 -264t-221 -102t-222 102q-68 102 -68 264v1078h20v-1078q0 -154 64 -250t206 -96q144 0 207 96q62 96 62 250v1078h21zM485 1716h29l-152 -176h-26z" />
    <glyph glyph-name="ucircumflex" unicode="&#xfb;" horiz-adv-x="743" 
d="M662 1434v-1078q0 -162 -69 -264t-221 -102t-222 102q-68 102 -68 264v1078h20v-1078q0 -154 64 -250t206 -96q144 0 207 96q62 96 62 250v1078h21zM375 1675l-146 -139h-28l166 160h14l168 -160h-31z" />
    <glyph glyph-name="udieresis" unicode="&#xfc;" horiz-adv-x="743" 
d="M662 1434v-1078q0 -162 -69 -264t-221 -102t-222 102q-68 102 -68 264v1078h20v-1078q0 -154 64 -250t206 -96q144 0 207 96q62 96 62 250v1078h21zM428 1690h21v-160h-21v160zM293 1690h20v-160h-20v160z" />
    <glyph glyph-name="yacute" unicode="&#xfd;" horiz-adv-x="872" 
d="M424 0v594l-342 840h20l332 -811l334 811h23l-347 -840v-594h-20zM545 1696h28l-151 -176h-27z" />
    <glyph glyph-name="thorn" unicode="&#xfe;" horiz-adv-x="772" 
d="M102 340h217q164 0 237 75t73 236v140q0 324 -271 323h-256v-774zM102 1135h256q291 0 291 -344v-140q0 -170 -80 -251t-250 -81h-217v-319h-20v1434h20v-299z" />
    <glyph glyph-name="ydieresis" unicode="&#xff;" horiz-adv-x="872" 
d="M424 0v594l-342 840h20l332 -811l334 811h23l-347 -840v-594h-20zM492 1681h20v-159h-20v159zM356 1681h21v-159h-21v159z" />
    <glyph glyph-name="Amacron" unicode="&#x100;" horiz-adv-x="925" 
d="M459 1409l-262 -1040h530zM733 348h-543l-88 -348h-20l362 1436h29l371 -1436h-21zM281 1595h356v-18h-356v18z" />
    <glyph glyph-name="amacron" unicode="&#x101;" horiz-adv-x="925" 
d="M459 1409l-262 -1040h530zM733 348h-543l-88 -348h-20l362 1436h29l371 -1436h-21zM281 1595h356v-18h-356v18z" />
    <glyph glyph-name="Abreve" unicode="&#x102;" horiz-adv-x="925" 
d="M459 1409l-262 -1040h530zM733 348h-543l-88 -348h-20l362 1436h29l371 -1436h-21zM460 1501q-73 0 -126 40t-55 110h20q2 -61 48 -95q47 -34 111 -34t112 34t51 95h20q-2 -70 -55 -110t-126 -40z" />
    <glyph glyph-name="abreve" unicode="&#x103;" horiz-adv-x="925" 
d="M459 1409l-262 -1040h530zM733 348h-543l-88 -348h-20l362 1436h29l371 -1436h-21zM460 1501q-73 0 -126 40t-55 110h20q2 -61 48 -95q47 -34 111 -34t112 34t51 95h20q-2 -70 -55 -110t-126 -40z" />
    <glyph glyph-name="Aogonek" unicode="&#x104;" horiz-adv-x="925" 
d="M459 1409l-262 -1040h530zM827 -258q59 0 99 33v-25q-45 -29 -101 -29q-98 4 -104 91q-2 47 27 100t73 94l-88 342h-543l-88 -348h-20l362 1436h29l371 -1436h-2q-39 -31 -71 -87t-30 -101q6 -70 86 -70z" />
    <glyph glyph-name="aogonek" unicode="&#x105;" horiz-adv-x="925" 
d="M459 1409l-262 -1040h530zM827 -258q59 0 99 33v-25q-45 -29 -101 -29q-98 4 -104 91q-2 47 27 100t73 94l-88 342h-543l-88 -348h-20l362 1436h29l371 -1436h-2q-39 -31 -71 -87t-30 -101q6 -70 86 -70z" />
    <glyph glyph-name="Cacute" unicode="&#x106;" 
d="M377 1444q151 0 223 -102t72 -261v-108h-21v108q0 152 -65 247q-66 95 -209 95t-209 -95t-66 -247v-729q0 -152 66 -247t209 -95t209 95t65 247v152h21v-152q0 -160 -72 -261t-224 -101t-222 101q-72 101 -72 261v729q0 159 72 261t223 102zM483 1716h29l-152 -176h-26z
" />
    <glyph glyph-name="cacute" unicode="&#x107;" 
d="M377 1444q151 0 223 -102t72 -261v-108h-21v108q0 152 -65 247q-66 95 -209 95t-209 -95t-66 -247v-729q0 -152 66 -247t209 -95t209 95t65 247v152h21v-152q0 -160 -72 -261t-224 -101t-222 101q-72 101 -72 261v729q0 159 72 261t223 102zM483 1716h29l-152 -176h-26z
" />
    <glyph glyph-name="Ccircumflex" unicode="&#x108;" 
d="M377 1444q151 0 223 -102t72 -261v-108h-21v108q0 152 -65 247q-66 95 -209 95t-209 -95t-66 -247v-729q0 -152 66 -247t209 -95t209 95t65 247v152h21v-152q0 -160 -72 -261t-224 -101t-222 101q-72 101 -72 261v729q0 159 72 261t223 102zM389 1669l-145 -139h-29
l166 160h14l168 -160h-31z" />
    <glyph glyph-name="ccircumflex" unicode="&#x109;" 
d="M377 1444q151 0 223 -102t72 -261v-108h-21v108q0 152 -65 247q-66 95 -209 95t-209 -95t-66 -247v-729q0 -152 66 -247t209 -95t209 95t65 247v152h21v-152q0 -160 -72 -261t-224 -101t-222 101q-72 101 -72 261v729q0 159 72 261t223 102zM389 1669l-145 -139h-29
l166 160h14l168 -160h-31z" />
    <glyph glyph-name="Cdotaccent" unicode="&#x10a;" 
d="M377 1444q151 0 223 -102t72 -261v-108h-21v108q0 152 -65 247q-66 95 -209 95t-209 -95t-66 -247v-729q0 -152 66 -247t209 -95t209 95t65 247v152h21v-152q0 -160 -72 -261t-224 -101t-222 101q-72 101 -72 261v729q0 159 72 261t223 102zM367 1677h20v-159h-20v159z
" />
    <glyph glyph-name="cdotaccent" unicode="&#x10b;" 
d="M377 1444q151 0 223 -102t72 -261v-108h-21v108q0 152 -65 247q-66 95 -209 95t-209 -95t-66 -247v-729q0 -152 66 -247t209 -95t209 95t65 247v152h21v-152q0 -160 -72 -261t-224 -101t-222 101q-72 101 -72 261v729q0 159 72 261t223 102zM367 1677h20v-159h-20v159z
" />
    <glyph glyph-name="Ccaron" unicode="&#x10c;" 
d="M377 1444q151 0 223 -102t72 -261v-108h-21v108q0 152 -65 247q-66 95 -209 95t-209 -95t-66 -247v-729q0 -152 66 -247t209 -95t209 95t65 247v152h21v-152q0 -160 -72 -261t-224 -101t-222 101q-72 101 -72 261v729q0 159 72 261t223 102zM219 1692h29l145 -140
l144 140h30l-168 -160h-14z" />
    <glyph glyph-name="ccaron" unicode="&#x10d;" 
d="M377 1444q151 0 223 -102t72 -261v-108h-21v108q0 152 -65 247q-66 95 -209 95t-209 -95t-66 -247v-729q0 -152 66 -247t209 -95t209 95t65 247v152h21v-152q0 -160 -72 -261t-224 -101t-222 101q-72 101 -72 261v729q0 159 72 261t223 102zM219 1692h29l145 -140
l144 140h30l-168 -160h-14z" />
    <glyph glyph-name="Dcaron" unicode="&#x10e;" horiz-adv-x="761" 
d="M102 20h273q147 0 216 92t68 244v719q0 154 -69 246q-70 92 -217 92h-271v-1393zM82 1434h291q155 0 231 -98t76 -261v-719q0 -160 -75 -258t-230 -98h-293v1434zM186 1679h29l145 -139l144 139h31l-168 -159h-15z" />
    <glyph glyph-name="dcaron" unicode="&#x10f;" horiz-adv-x="761" 
d="M102 20h273q147 0 216 92t68 244v719q0 154 -69 246q-70 92 -217 92h-271v-1393zM82 1434h291q155 0 231 -98t76 -261v-719q0 -160 -75 -258t-230 -98h-293v1434zM186 1679h29l145 -139l144 139h31l-168 -159h-15z" />
    <glyph glyph-name="Dcroat" unicode="&#x110;" horiz-adv-x="761" 
d="M311 723v-18h-209v-685h273q147 0 216 92t68 244v719q0 154 -69 246q-70 92 -217 92h-271v-690h209zM82 1434h291q155 0 231 -98t76 -261v-719q0 -160 -75 -258t-230 -98h-293v705h-94v18h94v711z" />
    <glyph glyph-name="dcroat" unicode="&#x111;" horiz-adv-x="761" 
d="M311 723v-18h-209v-685h273q147 0 216 92t68 244v719q0 154 -69 246q-70 92 -217 92h-271v-690h209zM82 1434h291q155 0 231 -98t76 -261v-719q0 -160 -75 -258t-230 -98h-293v705h-94v18h94v711z" />
    <glyph glyph-name="Emacron" unicode="&#x112;" horiz-adv-x="700" 
d="M102 737h437v-20h-437v-697h516v-20h-536v1434h536v-21h-516v-676zM176 1604h336v-19h-336v19z" />
    <glyph glyph-name="emacron" unicode="&#x113;" horiz-adv-x="700" 
d="M102 737h437v-20h-437v-697h516v-20h-536v1434h536v-21h-516v-676zM176 1604h336v-19h-336v19z" />
    <glyph glyph-name="Ebreve" unicode="&#x114;" horiz-adv-x="700" 
d="M102 737h437v-20h-437v-697h516v-20h-536v1434h536v-21h-516v-676zM349 1536q-73 0 -126 40t-55 110h20q2 -62 48 -96t111 -34q64 0 113 34q48 35 50 96h20q-2 -70 -55 -110t-126 -40z" />
    <glyph glyph-name="ebreve" unicode="&#x115;" horiz-adv-x="700" 
d="M102 737h437v-20h-437v-697h516v-20h-536v1434h536v-21h-516v-676zM349 1536q-73 0 -126 40t-55 110h20q2 -62 48 -96t111 -34q64 0 113 34q48 35 50 96h20q-2 -70 -55 -110t-126 -40z" />
    <glyph glyph-name="Edotaccent" unicode="&#x116;" horiz-adv-x="700" 
d="M102 737h437v-20h-437v-697h516v-20h-536v1434h536v-21h-516v-676zM348 1686h21v-160h-21v160z" />
    <glyph glyph-name="edotaccent" unicode="&#x117;" horiz-adv-x="700" 
d="M102 737h437v-20h-437v-697h516v-20h-536v1434h536v-21h-516v-676zM348 1686h21v-160h-21v160z" />
    <glyph glyph-name="Eogonek" unicode="&#x118;" horiz-adv-x="700" 
d="M102 737h437v-20h-437v-697h516v-20h-32q-41 -33 -73 -88t-30 -100q6 -70 86 -70q59 0 99 33v-25q-45 -29 -101 -29q-98 3 -104 89t98 190h-479v1434h536v-21h-516v-676z" />
    <glyph glyph-name="eogonek" unicode="&#x119;" horiz-adv-x="700" 
d="M102 737h437v-20h-437v-697h516v-20h-32q-41 -33 -73 -88t-30 -100q6 -70 86 -70q59 0 99 33v-25q-45 -29 -101 -29q-98 3 -104 89t98 190h-479v1434h536v-21h-516v-676z" />
    <glyph glyph-name="Ecaron" unicode="&#x11a;" horiz-adv-x="700" 
d="M102 737h437v-20h-437v-697h516v-20h-536v1434h536v-21h-516v-676zM186 1681h29l145 -139l144 139h31l-168 -159h-15z" />
    <glyph glyph-name="ecaron" unicode="&#x11b;" horiz-adv-x="700" 
d="M102 737h437v-20h-437v-697h516v-20h-536v1434h536v-21h-516v-676zM186 1681h29l145 -139l144 139h31l-168 -159h-15z" />
    <glyph glyph-name="Gcircumflex" unicode="&#x11c;" 
d="M377 1444q151 0 223 -102t72 -261v-90h-21v90q0 152 -65 247q-66 95 -209 95t-209 -95t-66 -247v-729q0 -152 66 -247t209 -95t209 95t65 247v334h-241v21h262v-355q0 -160 -72 -261t-224 -101t-222 101q-72 101 -72 261v729q0 159 72 261t223 102zM381 1681l-145 -139
h-29l166 160h14l168 -160h-31z" />
    <glyph glyph-name="gcircumflex" unicode="&#x11d;" 
d="M377 1444q151 0 223 -102t72 -261v-90h-21v90q0 152 -65 247q-66 95 -209 95t-209 -95t-66 -247v-729q0 -152 66 -247t209 -95t209 95t65 247v334h-241v21h262v-355q0 -160 -72 -261t-224 -101t-222 101q-72 101 -72 261v729q0 159 72 261t223 102zM381 1681l-145 -139
h-29l166 160h14l168 -160h-31z" />
    <glyph glyph-name="Gbreve" unicode="&#x11e;" 
d="M377 1444q151 0 223 -102t72 -261v-90h-21v90q0 152 -65 247q-66 95 -209 95t-209 -95t-66 -247v-729q0 -152 66 -247t209 -95t209 95t65 247v334h-241v21h262v-355q0 -160 -72 -261t-224 -101t-222 101q-72 101 -72 261v729q0 159 72 261t223 102zM382 1542
q-73 0 -126 40t-55 110h20q2 -62 48 -96q47 -34 111 -34t113 34q48 35 50 96h20q-2 -70 -55 -110t-126 -40z" />
    <glyph glyph-name="gbreve" unicode="&#x11f;" 
d="M377 1444q151 0 223 -102t72 -261v-90h-21v90q0 152 -65 247q-66 95 -209 95t-209 -95t-66 -247v-729q0 -152 66 -247t209 -95t209 95t65 247v334h-241v21h262v-355q0 -160 -72 -261t-224 -101t-222 101q-72 101 -72 261v729q0 159 72 261t223 102zM382 1542
q-73 0 -126 40t-55 110h20q2 -62 48 -96q47 -34 111 -34t113 34q48 35 50 96h20q-2 -70 -55 -110t-126 -40z" />
    <glyph glyph-name="Gdotaccent" unicode="&#x120;" 
d="M377 1444q151 0 223 -102t72 -261v-90h-21v90q0 152 -65 247q-66 95 -209 95t-209 -95t-66 -247v-729q0 -152 66 -247t209 -95t209 95t65 247v334h-241v21h262v-355q0 -160 -72 -261t-224 -101t-222 101q-72 101 -72 261v729q0 159 72 261t223 102zM387 1690h21v-160h-21
v160z" />
    <glyph glyph-name="gdotaccent" unicode="&#x121;" 
d="M377 1444q151 0 223 -102t72 -261v-90h-21v90q0 152 -65 247q-66 95 -209 95t-209 -95t-66 -247v-729q0 -152 66 -247t209 -95t209 95t65 247v334h-241v21h262v-355q0 -160 -72 -261t-224 -101t-222 101q-72 101 -72 261v729q0 159 72 261t223 102zM387 1690h21v-160h-21
v160z" />
    <glyph glyph-name="uni0122" unicode="&#x122;" 
d="M365 -229v159h20v-159l-37 -127h-14l33 127h-2zM377 1444q151 0 223 -102t72 -261v-90h-21v90q0 152 -65 247q-66 95 -209 95t-209 -95t-66 -247v-729q0 -152 66 -247t209 -95t209 95t65 247v334h-241v21h262v-355q0 -160 -72 -261t-224 -101t-222 101q-72 101 -72 261
v729q0 159 72 261t223 102z" />
    <glyph glyph-name="uni0123" unicode="&#x123;" 
d="M367 -229v159h20v-159l-37 -127h-14l33 127h-2zM377 1444q151 0 223 -102t72 -261v-90h-21v90q0 152 -65 247q-66 95 -209 95t-209 -95t-66 -247v-729q0 -152 66 -247t209 -95t209 95t65 247v334h-241v21h262v-355q0 -160 -72 -261t-224 -101t-222 101q-72 101 -72 261
v729q0 159 72 261t223 102z" />
    <glyph glyph-name="Hcircumflex" unicode="&#x124;" horiz-adv-x="757" 
d="M655 707h-553v-707h-20v1434h20v-707h553v707h21v-1434h-21v707zM379 1675l-146 -139h-28l166 160h14l168 -160h-31z" />
    <glyph glyph-name="hcircumflex" unicode="&#x125;" horiz-adv-x="757" 
d="M655 707h-553v-707h-20v1434h20v-707h553v707h21v-1434h-21v707zM379 1675l-146 -139h-28l166 160h14l168 -160h-31z" />
    <glyph glyph-name="Hbar" unicode="&#x126;" horiz-adv-x="757" 
d="M655 727v375h-553v-375h553zM754 1102h-78v-1102h-21v707h-553v-707h-20v1102h-82v18h82v314h20v-314h553v314h21v-314h78v-18z" />
    <glyph glyph-name="hbar" unicode="&#x127;" horiz-adv-x="757" 
d="M655 727v375h-553v-375h553zM754 1102h-78v-1102h-21v707h-553v-707h-20v1102h-82v18h82v314h20v-314h553v314h21v-314h78v-18z" />
    <glyph glyph-name="Itilde" unicode="&#x128;" horiz-adv-x="184" 
d="M82 1434h20v-1434h-20v1434zM-4 1632q-41 0 -76 -63l-18 10q41 72 102 74q39 2 102 -39t96 -39t66 63l19 -10q-37 -72 -88 -74q-35 -2 -99 38t-104 40z" />
    <glyph glyph-name="itilde" unicode="&#x129;" horiz-adv-x="184" 
d="M82 1434h20v-1434h-20v1434zM-4 1632q-41 0 -76 -63l-18 10q41 72 102 74q39 2 102 -39t96 -39t66 63l19 -10q-37 -72 -88 -74q-35 -2 -99 38t-104 40z" />
    <glyph glyph-name="Imacron" unicode="&#x12a;" horiz-adv-x="184" 
d="M82 1434h20v-1434h-20v1434zM-45 1595h274v-18h-274v18z" />
    <glyph glyph-name="imacron" unicode="&#x12b;" horiz-adv-x="184" 
d="M82 1434h20v-1434h-20v1434zM-45 1595h274v-18h-274v18z" />
    <glyph glyph-name="Ibreve" unicode="&#x12c;" horiz-adv-x="184" 
d="M82 0v1434h20v-1434h-20zM93 1522q-73 0 -126 40t-55 109h20q2 -61 48 -95t111 -34q64 0 113 34q48 34 50 95h20q-2 -69 -55 -109t-126 -40z" />
    <glyph glyph-name="ibreve" unicode="&#x12d;" horiz-adv-x="184" 
d="M82 0v1434h20v-1434h-20zM93 1522q-73 0 -126 40t-55 109h20q2 -61 48 -95t111 -34q64 0 113 34q48 34 50 95h20q-2 -69 -55 -109t-126 -40z" />
    <glyph glyph-name="Iogonek" unicode="&#x12e;" horiz-adv-x="184" 
d="M102 0h-2q-38 -31 -70 -87t-30 -101q6 -70 86 -70q59 0 98 33v-25q-45 -29 -100 -29q-98 4 -104 91q-6 92 102 188h-2l2 1434h20v-1434z" />
    <glyph glyph-name="iogonek" unicode="&#x12f;" horiz-adv-x="184" 
d="M102 0h-2q-38 -31 -70 -87t-30 -101q6 -70 86 -70q59 0 98 33v-25q-45 -29 -100 -29q-98 4 -104 91q-6 92 102 188h-2l2 1434h20v-1434z" />
    <glyph glyph-name="Idotaccent" unicode="&#x130;" horiz-adv-x="184" 
d="M82 1434h20v-1434h-20v1434zM82 1681h20v-159h-20v159z" />
    <glyph glyph-name="dotlessi" unicode="&#x131;" horiz-adv-x="184" 
d="M82 1434h20v-1434h-20v1434z" />
    <glyph glyph-name="IJ" unicode="&#x132;" horiz-adv-x="700" 
d="M618 1434v-1084q0 -176 -68 -258t-210 -92h-74v20h74q138 12 198 90t60 240v1084h20zM82 1434h20v-1434h-20v1434z" />
    <glyph glyph-name="ij" unicode="&#x133;" horiz-adv-x="700" 
d="M618 1434v-1084q0 -176 -68 -258t-210 -92h-74v20h74q138 12 198 90t60 240v1084h20zM82 1434h20v-1434h-20v1434z" />
    <glyph glyph-name="Jcircumflex" unicode="&#x134;" horiz-adv-x="516" 
d="M434 1434v-1084q0 -170 -66 -254q-84 -108 -286 -96v20q33 -2 86 3q129 12 187 89t59 238v1084h20zM424 1663l-145 -139h-29l166 159h14l168 -159h-31z" />
    <glyph glyph-name="jcircumflex" unicode="&#x135;" horiz-adv-x="516" 
d="M434 1434v-1084q0 -170 -66 -254q-84 -108 -286 -96v20q33 -2 86 3q129 12 187 89t59 238v1084h20zM424 1663l-145 -139h-29l166 159h14l168 -159h-31z" />
    <glyph glyph-name="uni0136" unicode="&#x136;" horiz-adv-x="817" 
d="M367 -229v159h20v-159l-37 -127h-14l33 127h-2zM102 0h-20v1434h20v-834l566 834h24l-463 -684l506 -750h-24l-494 731l-115 -168v-563z" />
    <glyph glyph-name="uni0137" unicode="&#x137;" horiz-adv-x="817" 
d="M367 -229v159h20v-159l-37 -127h-14l33 127h-2zM102 0h-20v1434h20v-834l566 834h24l-463 -684l506 -750h-24l-494 731l-115 -168v-563z" />
    <glyph glyph-name="kgreenlandic" unicode="&#x138;" horiz-adv-x="817" 
d="M102 0h-20v1434h20v-834l566 834h24l-463 -684l506 -750h-24l-494 731l-115 -168v-563z" />
    <glyph glyph-name="Lacute" unicode="&#x139;" horiz-adv-x="679" 
d="M598 0h-516v1434h20v-1414h496v-20zM215 1696h29l-152 -176h-26z" />
    <glyph glyph-name="lacute" unicode="&#x13a;" horiz-adv-x="679" 
d="M598 0h-516v1434h20v-1414h496v-20zM195 1700h28l-151 -176h-27z" />
    <glyph glyph-name="uni013B" unicode="&#x13b;" horiz-adv-x="679" 
d="M346 -240v160h21v-160l-37 -127h-15l33 127h-2zM598 0h-516v1434h20v-1414h496v-20z" />
    <glyph glyph-name="uni013C" unicode="&#x13c;" horiz-adv-x="679" 
d="M367 -229v159h20v-159l-37 -127h-14l33 127h-2zM598 0h-516v1434h20v-1414h496v-20z" />
    <glyph glyph-name="Lcaron" unicode="&#x13d;" horiz-adv-x="679" 
d="M446 1274v160h21v-160l-37 -127h-14l33 127h-3zM598 0h-516v1434h20v-1414h496v-20z" />
    <glyph glyph-name="lcaron" unicode="&#x13e;" horiz-adv-x="679" 
d="M446 1274v160h21v-160l-37 -127h-14l33 127h-3zM598 0h-516v1434h20v-1414h496v-20z" />
    <glyph glyph-name="Ldot" unicode="&#x13f;" horiz-adv-x="679" 
d="M350 807h21v-160h-21v160zM598 0h-516v1434h20v-1414h496v-20z" />
    <glyph glyph-name="ldot" unicode="&#x140;" horiz-adv-x="679" 
d="M350 807h21v-160h-21v160zM598 0h-516v1434h20v-1414h496v-20z" />
    <glyph glyph-name="Lslash" unicode="&#x141;" horiz-adv-x="710" 
d="M133 20h496v-20h-516v688l-113 -96v26l113 97v719h20v-699l168 156v-27l-168 -155v-689z" />
    <glyph glyph-name="lslash" unicode="&#x142;" horiz-adv-x="710" 
d="M113 0v688l-113 -96v26l113 97v719h20v-699l168 156v-27l-168 -155v-689h496v-20h-516z" />
    <glyph glyph-name="Nacute" unicode="&#x143;" horiz-adv-x="759" 
d="M102 2h-20v1434h35l540 -1407v1407h21v-1434h-31l-545 1413v-1413zM494 1702h28l-151 -176h-27z" />
    <glyph glyph-name="nacute" unicode="&#x144;" horiz-adv-x="759" 
d="M102 2h-20v1434h35l540 -1407v1407h21v-1434h-31l-545 1413v-1413zM494 1702h28l-151 -176h-27z" />
    <glyph glyph-name="uni0145" unicode="&#x145;" horiz-adv-x="759" 
d="M367 -229v159h20v-159l-37 -127h-14l33 127h-2zM102 0h-20v1434h35l540 -1407v1407h21v-1434h-31l-545 1413v-1413z" />
    <glyph glyph-name="uni0146" unicode="&#x146;" horiz-adv-x="759" 
d="M367 -229v159h20v-159l-37 -127h-14l33 127h-2zM102 0h-20v1434h35l540 -1407v1407h21v-1434h-31l-545 1413v-1413z" />
    <glyph glyph-name="Ncaron" unicode="&#x147;" horiz-adv-x="759" 
d="M102 0h-20v1434h35l540 -1407v1407h21v-1434h-31l-545 1413v-1413zM211 1696h29l145 -140l143 140h31l-168 -160h-14z" />
    <glyph glyph-name="ncaron" unicode="&#x148;" horiz-adv-x="759" 
d="M102 0h-20v1434h35l540 -1407v1407h21v-1434h-31l-545 1413v-1413zM211 1696h29l145 -140l143 140h31l-168 -160h-14z" />
    <glyph glyph-name="napostrophe" unicode="&#x149;" horiz-adv-x="862" 
d="M205 0h-21v1434h35l541 -1407v1407h20v-1434h-30l-545 1413v-1413zM51 1274v160h21v-160l-37 -127h-15l33 127h-2z" />
    <glyph glyph-name="Omacron" unicode="&#x14c;" horiz-adv-x="763" 
d="M381 1423q-145 0 -212 -95t-67 -247v-729q0 -154 67 -248t212 -94t213 94t68 248v729q0 152 -68 247t-213 95zM82 1081q0 159 72 261t228 102t228 -102t72 -261v-729q0 -160 -73 -261t-227 -101t-228 101q-72 101 -72 261v729zM219 1597h332v-18h-332v18z" />
    <glyph glyph-name="omacron" unicode="&#x14d;" horiz-adv-x="763" 
d="M381 1423q-145 0 -212 -95t-67 -247v-729q0 -154 67 -248t212 -94t213 94t68 248v729q0 152 -68 247t-213 95zM82 1081q0 159 72 261t228 102t228 -102t72 -261v-729q0 -160 -73 -261t-227 -101t-228 101q-72 101 -72 261v729zM219 1597h332v-18h-332v18z" />
    <glyph glyph-name="Obreve" unicode="&#x14e;" horiz-adv-x="763" 
d="M381 1423q-145 0 -212 -95t-67 -247v-729q0 -154 67 -248t212 -94t213 94t68 248v729q0 152 -68 247t-213 95zM82 1081q0 159 72 261t228 102t228 -102t72 -261v-729q0 -160 -73 -261t-227 -101t-228 101q-72 101 -72 261v729zM382 1542q-73 0 -126 40t-55 110h20
q2 -62 48 -96q47 -34 111 -34t113 34q48 35 50 96h20q-2 -70 -55 -110t-126 -40z" />
    <glyph glyph-name="obreve" unicode="&#x14f;" horiz-adv-x="763" 
d="M381 1423q-145 0 -212 -95t-67 -247v-729q0 -154 67 -248t212 -94t213 94t68 248v729q0 152 -68 247t-213 95zM82 1081q0 159 72 261t228 102t228 -102t72 -261v-729q0 -160 -73 -261t-227 -101t-228 101q-72 101 -72 261v729zM382 1542q-73 0 -126 40t-55 110h20
q2 -62 48 -96q47 -34 111 -34t113 34q48 35 50 96h20q-2 -70 -55 -110t-126 -40z" />
    <glyph glyph-name="Ohungarumlaut" unicode="&#x150;" horiz-adv-x="763" 
d="M381 1423q-145 0 -212 -95t-67 -247v-729q0 -154 67 -248t212 -94t213 94t68 248v729q0 152 -68 247t-213 95zM82 1081q0 159 72 261t228 102t228 -102t72 -261v-729q0 -160 -73 -261t-227 -101t-228 101q-72 101 -72 261v729zM555 1716h29l-152 -176h-26zM434 1716h29
l-152 -176h-26z" />
    <glyph glyph-name="ohungarumlaut" unicode="&#x151;" horiz-adv-x="763" 
d="M381 1423q-145 0 -212 -95t-67 -247v-729q0 -154 67 -248t212 -94t213 94t68 248v729q0 152 -68 247t-213 95zM82 1081q0 159 72 261t228 102t228 -102t72 -261v-729q0 -160 -73 -261t-227 -101t-228 101q-72 101 -72 261v729zM555 1716h29l-152 -176h-26zM434 1716h29
l-152 -176h-26z" />
    <glyph glyph-name="OE" unicode="&#x152;" horiz-adv-x="1142" 
d="M602 1413h-244q-135 0 -195 -96t-61 -242v-717q0 -145 60 -241t196 -97h244v1393zM623 737h370v-20h-370v-697h438v-20h-703q-145 0 -211 102t-65 256v717q0 154 65 256q66 102 211 103h703v-21h-438v-676z" />
    <glyph glyph-name="oe" unicode="&#x153;" horiz-adv-x="1142" 
d="M602 1413h-244q-135 0 -195 -96t-61 -242v-717q0 -145 60 -241t196 -97h244v1393zM623 737h370v-20h-370v-697h438v-20h-703q-145 0 -211 102t-65 256v717q0 154 65 256q66 102 211 103h703v-21h-438v-676z" />
    <glyph glyph-name="Racute" unicode="&#x154;" horiz-adv-x="772" 
d="M102 692h189q174 0 256 62t82 229v129q0 301 -271 301h-256v-721zM82 1434h276q291 0 291 -322v-129q0 -268 -239 -303q240 -33 239 -285v-225q0 -119 41 -170h-24q-37 57 -37 170v225q0 156 -87 216t-251 61h-189v-672h-20v1434zM446 1716h29l-151 -176h-27z" />
    <glyph glyph-name="racute" unicode="&#x155;" horiz-adv-x="772" 
d="M102 692h189q174 0 256 62t82 229v129q0 301 -271 301h-256v-721zM82 1434h276q291 0 291 -322v-129q0 -268 -239 -303q240 -33 239 -285v-225q0 -119 41 -170h-24q-37 57 -37 170v225q0 156 -87 216t-251 61h-189v-672h-20v1434zM446 1716h29l-151 -176h-27z" />
    <glyph glyph-name="uni0156" unicode="&#x156;" horiz-adv-x="772" 
d="M362 -227v159h21v-159l-37 -127h-14l33 127h-3zM102 692h189q174 0 256 62t82 229v129q0 301 -271 301h-256v-721zM82 1434h276q291 0 291 -322v-129q0 -268 -239 -303q240 -33 239 -285v-225q0 -119 41 -170h-24q-37 57 -37 170v225q0 156 -87 216t-251 61h-189v-672
h-20v1434z" />
    <glyph glyph-name="uni0157" unicode="&#x157;" horiz-adv-x="772" 
d="M367 -229v159h20v-159l-37 -127h-14l33 127h-2zM102 692h189q174 0 256 62t82 229v129q0 301 -271 301h-256v-721zM82 1434h276q291 0 291 -322v-129q0 -268 -239 -303q240 -33 239 -285v-225q0 -119 41 -170h-24q-37 57 -37 170v225q0 156 -87 216t-251 61h-189v-672
h-20v1434z" />
    <glyph glyph-name="Rcaron" unicode="&#x158;" horiz-adv-x="772" 
d="M102 692h189q174 0 256 62t82 229v129q0 301 -271 301h-256v-721zM82 1434h276q291 0 291 -322v-129q0 -268 -239 -303q240 -33 239 -285v-225q0 -119 41 -170h-24q-37 57 -37 170v225q0 156 -87 216t-251 61h-189v-672h-20v1434zM170 1698h29l145 -139l143 139h31
l-168 -160h-14z" />
    <glyph glyph-name="rcaron" unicode="&#x159;" horiz-adv-x="772" 
d="M102 692h189q174 0 256 62t82 229v129q0 301 -271 301h-256v-721zM82 1434h276q291 0 291 -322v-129q0 -268 -239 -303q240 -33 239 -285v-225q0 -119 41 -170h-24q-37 57 -37 170v225q0 156 -87 216t-251 61h-189v-672h-20v1434zM170 1698h29l145 -139l143 139h31
l-168 -160h-14z" />
    <glyph glyph-name="Sacute" unicode="&#x15a;" 
d="M670 1087v-24h-21v24q0 150 -64 243q-65 93 -207 93t-206 -92q-64 -93 -63 -219q0 -126 58 -206t141 -132q83 -53 165 -106t140 -134t59 -188q0 -160 -71 -258t-225 -98t-224 98t-70 258v68h20v-68q0 -152 66 -244t209 -92t209 92t65 244q0 102 -58 180t-140 130
t-165 106t-142 137q-58 82 -58 191q0 164 70 258t222 95q150 1 220 -98t70 -258zM494 1716h28l-151 -176h-27z" />
    <glyph glyph-name="sacute" unicode="&#x15b;" 
d="M670 1087v-24h-21v24q0 150 -64 243q-65 93 -207 93t-206 -92q-64 -93 -63 -219q0 -126 58 -206t141 -132q83 -53 165 -106t140 -134t59 -188q0 -160 -71 -258t-225 -98t-224 98t-70 258v68h20v-68q0 -152 66 -244t209 -92t209 92t65 244q0 102 -58 180t-140 130
t-165 106t-142 137q-58 82 -58 191q0 164 70 258t222 95q150 1 220 -98t70 -258zM494 1716h28l-151 -176h-27z" />
    <glyph glyph-name="Scircumflex" unicode="&#x15c;" 
d="M670 1087v-24h-21v24q0 150 -64 243q-65 93 -207 93t-206 -92q-64 -93 -63 -219q0 -126 58 -206t141 -132q83 -53 165 -106t140 -134t59 -188q0 -160 -71 -258t-225 -98t-224 98t-70 258v68h20v-68q0 -152 66 -244t209 -92t209 92t65 244q0 102 -58 180t-140 130
t-165 106t-142 137q-58 82 -58 191q0 164 70 258t222 95q150 1 220 -98t70 -258zM393 1675l-145 -139h-29l166 160h14l168 -160h-30z" />
    <glyph glyph-name="scircumflex" unicode="&#x15d;" 
d="M670 1087v-24h-21v24q0 150 -64 243q-65 93 -207 93t-206 -92q-64 -93 -63 -219q0 -126 58 -206t141 -132q83 -53 165 -106t140 -134t59 -188q0 -160 -71 -258t-225 -98t-224 98t-70 258v68h20v-68q0 -152 66 -244t209 -92t209 92t65 244q0 102 -58 180t-140 130
t-165 106t-142 137q-58 82 -58 191q0 164 70 258t222 95q150 1 220 -98t70 -258zM393 1675l-145 -139h-29l166 160h14l168 -160h-30z" />
    <glyph glyph-name="Scedilla" unicode="&#x15e;" 
d="M670 1087v-24h-21v24q0 150 -64 243q-65 93 -207 93t-206 -92q-64 -93 -63 -219q0 -126 58 -206t141 -132q83 -53 165 -106t140 -134t59 -188q0 -156 -67 -253t-212 -103v-70q154 -4 154 -110q0 -60 -52 -92t-117 -30t-118 32t-53 92v6h20v-6q0 -51 47 -77
q48 -26 104 -27t102 25t46 77q0 92 -143 92h-10v88q-151 2 -221 100t-70 256v68h20v-68q0 -152 66 -244t209 -92t209 92t65 244q0 102 -58 180t-140 130t-165 106t-142 137q-58 82 -58 191q0 164 70 258t222 95q150 1 220 -98t70 -258z" />
    <glyph glyph-name="scedilla" unicode="&#x15f;" 
d="M670 1087v-24h-21v24q0 150 -64 243q-65 93 -207 93t-206 -92q-64 -93 -63 -219q0 -126 58 -206t141 -132q83 -53 165 -106t140 -134t59 -188q0 -156 -67 -253t-212 -103v-70q154 -4 154 -110q0 -60 -52 -92t-117 -30t-118 32t-53 92v6h20v-6q0 -51 47 -77
q48 -26 104 -27t102 25t46 77q0 92 -143 92h-10v88q-151 2 -221 100t-70 256v68h20v-68q0 -152 66 -244t209 -92t209 92t65 244q0 102 -58 180t-140 130t-165 106t-142 137q-58 82 -58 191q0 164 70 258t222 95q150 1 220 -98t70 -258z" />
    <glyph glyph-name="Scaron" unicode="&#x160;" 
d="M670 1087v-24h-21v24q0 150 -64 243q-65 93 -207 93t-206 -92q-64 -93 -63 -219q0 -126 58 -206t141 -132q83 -53 165 -106t140 -134t59 -188q0 -160 -71 -258t-225 -98t-224 98t-70 258v68h20v-68q0 -152 66 -244t209 -92t209 92t65 244q0 102 -58 180t-140 130
t-165 106t-142 137q-58 82 -58 191q0 164 70 258t222 95q150 1 220 -98t70 -258zM211 1698h29l145 -139l143 139h31l-168 -160h-14z" />
    <glyph glyph-name="scaron" unicode="&#x161;" 
d="M670 1087v-24h-21v24q0 150 -64 243q-65 93 -207 93t-206 -92q-64 -93 -63 -219q0 -126 58 -206t141 -132q83 -53 165 -106t140 -134t59 -188q0 -160 -71 -258t-225 -98t-224 98t-70 258v68h20v-68q0 -152 66 -244t209 -92t209 92t65 244q0 102 -58 180t-140 130
t-165 106t-142 137q-58 82 -58 191q0 164 70 258t222 95q150 1 220 -98t70 -258zM211 1698h29l145 -139l143 139h31l-168 -160h-14z" />
    <glyph glyph-name="uni0162" unicode="&#x162;" horiz-adv-x="831" 
d="M426 0h-2v-72q156 -4 156 -110q0 -61 -52 -92t-118 -30q-64 1 -117 32t-53 92v6h20v-6q0 -51 47 -77t103 -27t103 25q46 26 46 77q0 92 -143 92h-8v90h-2v1413h-324v21h668v-21h-324v-1413z" />
    <glyph glyph-name="uni0163" unicode="&#x163;" horiz-adv-x="831" 
d="M426 0h-2v-72q156 -4 156 -110q0 -61 -52 -92t-118 -30q-64 1 -117 32t-53 92v6h20v-6q0 -51 47 -77t103 -27t103 25q46 26 46 77q0 92 -143 92h-8v90h-2v1413h-324v21h668v-21h-324v-1413z" />
    <glyph glyph-name="Tcaron" unicode="&#x164;" horiz-adv-x="831" 
d="M426 0h-20v1413h-324v21h668v-21h-324v-1413zM242 1683h28l146 -139l143 139h31l-168 -159h-14z" />
    <glyph glyph-name="tcaron" unicode="&#x165;" horiz-adv-x="831" 
d="M426 0h-20v1413h-324v21h668v-21h-324v-1413zM242 1683h28l146 -139l143 139h31l-168 -159h-14z" />
    <glyph glyph-name="Tbar" unicode="&#x166;" horiz-adv-x="831" 
d="M426 928h168v-19h-168v-909h-20v909h-168v19h168v485h-324v21h668v-21h-324v-485z" />
    <glyph glyph-name="tbar" unicode="&#x167;" horiz-adv-x="831" 
d="M426 928h168v-19h-168v-909h-20v909h-168v19h168v485h-324v21h668v-21h-324v-485z" />
    <glyph glyph-name="Utilde" unicode="&#x168;" horiz-adv-x="743" 
d="M662 1434v-1078q0 -162 -69 -264t-221 -102t-222 102q-68 102 -68 264v1078h20v-1078q0 -154 64 -250t206 -96q144 0 207 96q62 96 62 250v1078h21zM277 1636q-41 0 -76 -63l-19 10q41 72 103 74q39 2 102 -39t96 -39t66 63l18 -10q-37 -72 -88 -73q-35 -3 -98 37
t-104 40z" />
    <glyph glyph-name="utilde" unicode="&#x169;" horiz-adv-x="743" 
d="M662 1434v-1078q0 -162 -69 -264t-221 -102t-222 102q-68 102 -68 264v1078h20v-1078q0 -154 64 -250t206 -96q144 0 207 96q62 96 62 250v1078h21zM277 1636q-41 0 -76 -63l-19 10q41 72 103 74q39 2 102 -39t96 -39t66 63l18 -10q-37 -72 -88 -73q-35 -3 -98 37
t-104 40z" />
    <glyph glyph-name="Umacron" unicode="&#x16a;" horiz-adv-x="743" 
d="M662 1434v-1078q0 -162 -69 -264t-221 -102t-222 102q-68 102 -68 264v1078h20v-1078q0 -154 64 -250t206 -96q144 0 207 96q62 96 62 250v1078h21zM223 1595h316v-18h-316v18z" />
    <glyph glyph-name="umacron" unicode="&#x16b;" horiz-adv-x="743" 
d="M662 1434v-1078q0 -162 -69 -264t-221 -102t-222 102q-68 102 -68 264v1078h20v-1078q0 -154 64 -250t206 -96q144 0 207 96q62 96 62 250v1078h21zM223 1595h316v-18h-316v18z" />
    <glyph glyph-name="Ubreve" unicode="&#x16c;" horiz-adv-x="743" 
d="M662 1434v-1078q0 -162 -69 -264t-221 -102t-222 102q-68 102 -68 264v1078h20v-1078q0 -154 64 -250t206 -96q144 0 207 96q62 96 62 250v1078h21zM376 1522q-73 0 -126 40t-55 109h20q2 -61 49 -95q46 -34 110 -34t112 34t51 95h20q-2 -69 -55 -109t-126 -40z" />
    <glyph glyph-name="ubreve" unicode="&#x16d;" horiz-adv-x="743" 
d="M662 1434v-1078q0 -162 -69 -264t-221 -102t-222 102q-68 102 -68 264v1078h20v-1078q0 -154 64 -250t206 -96q144 0 207 96q62 96 62 250v1078h21zM376 1522q-73 0 -126 40t-55 109h20q2 -61 49 -95q46 -34 110 -34t112 34t51 95h20q-2 -69 -55 -109t-126 -40z" />
    <glyph glyph-name="Uring" unicode="&#x16e;" horiz-adv-x="743" 
d="M662 1434v-1078q0 -162 -69 -264t-221 -102t-222 102q-68 102 -68 264v1078h20v-1078q0 -154 64 -250t206 -96q144 0 207 96q62 96 62 250v1078h21zM385 1729q-43 0 -73 -28t-30 -71q0 -44 30 -72t73 -28t73 29t30 71t-30 71q-30 28 -73 28zM385 1749q51 0 87 -34t36 -85
t-36 -86t-87 -35t-87 35t-36 86t36 85t87 34z" />
    <glyph glyph-name="uring" unicode="&#x16f;" horiz-adv-x="743" 
d="M662 1434v-1078q0 -162 -69 -264t-221 -102t-222 102q-68 102 -68 264v1078h20v-1078q0 -154 64 -250t206 -96q144 0 207 96q62 96 62 250v1078h21zM385 1729q-43 0 -73 -28t-30 -71q0 -44 30 -72t73 -28t73 29t30 71t-30 71q-30 28 -73 28zM385 1749q51 0 87 -34t36 -85
t-36 -86t-87 -35t-87 35t-36 86t36 85t87 34z" />
    <glyph glyph-name="Uhungarumlaut" unicode="&#x170;" horiz-adv-x="743" 
d="M662 1434v-1078q0 -162 -69 -264t-221 -102t-222 102q-68 102 -68 264v1078h20v-1078q0 -154 64 -250t206 -96q144 0 207 96q62 96 62 250v1078h21zM543 1710h28l-151 -176h-27zM422 1710h29l-152 -176h-27z" />
    <glyph glyph-name="uhungarumlaut" unicode="&#x171;" horiz-adv-x="743" 
d="M662 1434v-1078q0 -162 -69 -264t-221 -102t-222 102q-68 102 -68 264v1078h20v-1078q0 -154 64 -250t206 -96q144 0 207 96q62 96 62 250v1078h21zM543 1710h28l-151 -176h-27zM422 1710h29l-152 -176h-27z" />
    <glyph glyph-name="Uogonek" unicode="&#x172;" horiz-adv-x="743" 
d="M662 1434v-1078q0 -303 -205 -356q-41 -33 -73 -88t-30 -100q6 -70 86 -70q59 0 99 33v-25q-45 -29 -101 -29q-98 3 -104 89t88 184q-33 -4 -49 -4q-155 0 -223 102t-68 264v1078h20v-1078q0 -154 64 -250t206 -96q144 0 207 96q62 96 62 250v1078h21z" />
    <glyph glyph-name="uogonek" unicode="&#x173;" horiz-adv-x="743" 
d="M662 1434v-1078q0 -303 -205 -356q-41 -33 -73 -88t-30 -100q6 -70 86 -70q59 0 99 33v-25q-45 -29 -101 -29q-98 3 -104 89t88 184q-33 -4 -49 -4q-155 0 -223 102t-68 264v1078h20v-1078q0 -154 64 -250t206 -96q144 0 207 96q62 96 62 250v1078h21z" />
    <glyph glyph-name="Wcircumflex" unicode="&#x174;" horiz-adv-x="1282" 
d="M653 1405l-268 -1405h-31l-272 1434h20l269 -1405l266 1396h33l250 -1386l260 1395h20l-268 -1434h-27zM649 1669l-145 -139h-29l166 160h14l168 -160h-30z" />
    <glyph glyph-name="wcircumflex" unicode="&#x175;" horiz-adv-x="1282" 
d="M653 1405l-268 -1405h-31l-272 1434h20l269 -1405l266 1396h33l250 -1386l260 1395h20l-268 -1434h-27zM649 1669l-145 -139h-29l166 160h14l168 -160h-30z" />
    <glyph glyph-name="Ycircumflex" unicode="&#x176;" horiz-adv-x="872" 
d="M424 0v594l-342 840h20l332 -811l334 811h23l-347 -840v-594h-20zM436 1667l-145 -139h-29l166 160h14l168 -160h-30z" />
    <glyph glyph-name="ycircumflex" unicode="&#x177;" horiz-adv-x="872" 
d="M424 0v594l-342 840h20l332 -811l334 811h23l-347 -840v-594h-20zM436 1667l-145 -139h-29l166 160h14l168 -160h-30z" />
    <glyph glyph-name="Ydieresis" unicode="&#x178;" horiz-adv-x="872" 
d="M424 0v594l-342 840h20l332 -811l334 811h23l-347 -840v-594h-20zM492 1681h20v-159h-20v159zM356 1681h21v-159h-21v159z" />
    <glyph glyph-name="Zacute" unicode="&#x179;" horiz-adv-x="815" 
d="M721 20v-20h-639v23l627 1390h-596v21h618v-25l-627 -1389h617zM549 1716h29l-152 -176h-27z" />
    <glyph glyph-name="zacute" unicode="&#x17a;" horiz-adv-x="815" 
d="M721 20v-20h-639v23l627 1390h-596v21h618v-25l-627 -1389h617zM549 1716h29l-152 -176h-27z" />
    <glyph glyph-name="Zdotaccent" unicode="&#x17b;" horiz-adv-x="815" 
d="M721 20v-20h-639v23l627 1390h-596v21h618v-25l-627 -1389h617zM438 1698h21v-160h-21v160z" />
    <glyph glyph-name="zdotaccent" unicode="&#x17c;" horiz-adv-x="815" 
d="M721 20v-20h-639v23l627 1390h-596v21h618v-25l-627 -1389h617zM438 1698h21v-160h-21v160z" />
    <glyph glyph-name="Zcaron" unicode="&#x17d;" horiz-adv-x="815" 
d="M721 20v-20h-639v23l627 1390h-596v21h618v-25l-627 -1389h617zM254 1696h29l145 -140l143 140h31l-168 -160h-14z" />
    <glyph glyph-name="zcaron" unicode="&#x17e;" horiz-adv-x="815" 
d="M721 20v-20h-639v23l627 1390h-596v21h618v-25l-627 -1389h617zM254 1696h29l145 -140l143 140h31l-168 -160h-14z" />
    <glyph glyph-name="AEacute" unicode="&#x1fc;" horiz-adv-x="1216" 
d="M678 377v1036l-422 -1036h422zM698 737h369v-20h-369v-697h437v-20h-457v356h-430l-146 -356h-20l582 1434h471v-21h-437v-676zM819 1710h29l-152 -176h-26z" />
    <glyph glyph-name="aeacute" unicode="&#x1fd;" horiz-adv-x="1216" 
d="M678 377v1036l-422 -1036h422zM698 737h369v-20h-369v-697h437v-20h-457v356h-430l-146 -356h-20l582 1434h471v-21h-437v-676zM819 1710h29l-152 -176h-26z" />
    <glyph glyph-name="Oslashacute" unicode="&#x1fe;" horiz-adv-x="763" 
d="M376 10q150 0 218 94t68 248v729q-1 125 -46 209l-460 -1169q70 -111 220 -111zM386 1423q-150 0 -217 -95t-67 -247v-729q0 -125 41 -209l461 1168q-68 112 -218 112zM682 1081v-729q0 -160 -73 -261t-229 -101t-233 110l-38 -100h-21l47 119q-53 92 -53 233v729
q0 160 73 261q73 102 225 102t234 -109l39 99h21l-47 -119q55 -90 55 -234zM346 1540l150 176h28l-151 -176h-27z" />
    <glyph glyph-name="oslashacute" unicode="&#x1ff;" horiz-adv-x="763" 
d="M376 10q150 0 218 94t68 248v729q-1 125 -46 209l-460 -1169q70 -111 220 -111zM386 1423q-150 0 -217 -95t-67 -247v-729q0 -125 41 -209l461 1168q-68 112 -218 112zM682 1081v-729q0 -160 -73 -261t-229 -101t-233 110l-38 -100h-21l47 119q-53 92 -53 233v729
q0 160 73 261q73 102 225 102t234 -109l39 99h21l-47 -119q55 -90 55 -234zM346 1540l150 176h28l-151 -176h-27z" />
    <glyph glyph-name="uni0218" unicode="&#x218;" 
d="M367 -229v159h20v-159l-37 -127h-14l33 127h-2zM670 1087v-24h-21v24q0 150 -64 243q-65 93 -207 93t-206 -92q-64 -93 -63 -219q0 -126 58 -206t141 -132q83 -53 165 -106t140 -134t59 -188q0 -160 -71 -258t-225 -98t-224 98t-70 258v68h20v-68q0 -152 66 -244t209 -92
t209 92t65 244q0 102 -58 180t-140 130t-165 106t-142 137q-58 82 -58 191q0 164 70 258t222 95q150 1 220 -98t70 -258z" />
    <glyph glyph-name="uni0219" unicode="&#x219;" 
d="M367 -229v159h20v-159l-37 -127h-14l33 127h-2zM670 1087v-24h-21v24q0 150 -64 243q-65 93 -207 93t-206 -92q-64 -93 -63 -219q0 -126 58 -206t141 -132q83 -53 165 -106t140 -134t59 -188q0 -160 -71 -258t-225 -98t-224 98t-70 258v68h20v-68q0 -152 66 -244t209 -92
t209 92t65 244q0 102 -58 180t-140 130t-165 106t-142 137q-58 82 -58 191q0 164 70 258t222 95q150 1 220 -98t70 -258z" />
    <glyph glyph-name="uni021A" unicode="&#x21a;" horiz-adv-x="831" 
d="M406 -229v159h20v-159l-37 -127h-14l33 127h-2zM426 0h-20v1413h-324v21h668v-21h-324v-1413z" />
    <glyph glyph-name="uni021B" unicode="&#x21b;" horiz-adv-x="831" 
d="M406 -229v159h20v-159l-37 -127h-14l33 127h-2zM426 0h-20v1413h-324v21h668v-21h-324v-1413z" />
    <glyph glyph-name="uni0237" unicode="&#x237;" horiz-adv-x="516" 
d="M414 1434h20v-1084q0 -170 -66 -254q-84 -108 -286 -96v20q33 -2 86 3q129 12 187 89t59 238v1084z" />
    <glyph glyph-name="uni02BC" unicode="&#x2bc;" horiz-adv-x="215" 
d="M113 1274v160h20v-160l-37 -127h-14l33 127h-2z" />
    <glyph glyph-name="circumflex" unicode="&#x2c6;" horiz-adv-x="512" 
d="M256 1716l-145 -139h-29l166 160h14l168 -160h-31z" />
    <glyph glyph-name="caron" unicode="&#x2c7;" horiz-adv-x="512" 
d="M82 1737h29l145 -140l143 140h31l-168 -160h-14z" />
    <glyph glyph-name="breve" unicode="&#x2d8;" horiz-adv-x="526" 
d="M263 1501q-73 0 -126 40t-55 110h20q2 -61 48 -95t111 -34q64 0 113 33q48 35 50 96h20q-2 -70 -55 -110t-126 -40z" />
    <glyph glyph-name="dotaccent" unicode="&#x2d9;" horiz-adv-x="184" 
d="M82 1706h20v-160h-20v160z" />
    <glyph glyph-name="ring" unicode="&#x2da;" horiz-adv-x="409" 
d="M205 1765q-43 1 -73 -27t-30 -71t30 -72t73 -29t73 30q30 28 29 71q0 43 -29 71q-30 27 -73 27zM205 1786q51 0 87 -34t36 -85t-36 -86t-87 -35t-87 35t-36 86t36 85t87 34z" />
    <glyph glyph-name="ogonek" unicode="&#x2db;" horiz-adv-x="368" 
d="M188 -258q59 0 99 33v-25q-45 -29 -101 -29q-98 3 -104 91t94 188h29q-41 -33 -73 -88t-30 -100q6 -70 86 -70z" />
    <glyph glyph-name="tilde" unicode="&#x2dc;" horiz-adv-x="548" 
d="M176 1632q-42 0 -76 -63l-18 10q41 72 102 74q38 2 102 -39t97 -39t66 63l18 -10q-37 -72 -88 -74q-35 -2 -98 38t-105 40z" />
    <glyph glyph-name="hungarumlaut" unicode="&#x2dd;" horiz-adv-x="462" 
d="M352 1737h29l-152 -176h-26zM231 1737h29l-151 -176h-27z" />
    <glyph glyph-name="uni0401" unicode="&#x401;" horiz-adv-x="700" 
d="M102 737h437v-20h-437v-697h516v-20h-536v1434h536v-21h-516v-676zM410 1696h20v-160h-20v160zM274 1696h21v-160h-21v160z" />
    <glyph glyph-name="uni0410" unicode="&#x410;" horiz-adv-x="925" 
d="M459 1409l-262 -1040h530zM733 348h-543l-88 -348h-20l362 1436h29l371 -1436h-21z" />
    <glyph glyph-name="uni0411" unicode="&#x411;" horiz-adv-x="759" 
d="M102 20h271q153 0 219 80t65 234v168q0 158 -72 218q-73 60 -237 60h-246v-760zM102 801h246q172 0 251 -67t79 -232v-168q0 -334 -305 -334h-291v1434h549v-21h-529v-612z" />
    <glyph glyph-name="uni0412" unicode="&#x412;" horiz-adv-x="741" 
d="M102 20h260q276 0 277 308v129q0 161 -77 229t-238 68h-222v-734zM102 774h199q170 0 240 54t69 214v99q0 141 -54 207t-194 65h-260v-639zM82 1434h280q148 0 208 -73t61 -220v-99q0 -128 -46 -196t-167 -82q242 -29 241 -307v-129q0 -328 -297 -328h-280v1434z" />
    <glyph glyph-name="uni0413" unicode="&#x413;" horiz-adv-x="688" 
d="M606 1413h-504v-1413h-20v1434h524v-21z" />
    <glyph glyph-name="uni0414" unicode="&#x414;" horiz-adv-x="1003" 
d="M770 20v1393h-424l-61 -1141q-6 -179 -70 -252h555zM922 -203h-21v203h-799v-203h-20v223h104q46 46 60 104t18 150l62 1160h465v-1414h131v-223z" />
    <glyph glyph-name="uni0415" unicode="&#x415;" horiz-adv-x="700" 
d="M102 737h437v-20h-437v-697h516v-20h-536v1434h536v-21h-516v-676z" />
    <glyph glyph-name="uni0416" unicode="&#x416;" horiz-adv-x="1296" 
d="M657 0h-20v571l-117 191l-416 -762h-22l426 780l-402 654h23l508 -828v828h20v-828l508 828h25l-402 -654l426 -780h-22l-416 762l-119 -193v-569z" />
    <glyph glyph-name="uni0417" unicode="&#x417;" 
d="M377 1444q155 0 225 -100t70 -263v-37q0 -102 -58 -185t-159 -111q104 -20 160 -100t57 -185v-111q0 -162 -71 -262t-225 -100t-224 100t-70 262v99h20v-99q0 -152 65 -247t210 -95t210 95t64 247v111q-1 117 -73 195t-189 79h-96v21h96q111 0 187 87t75 199v37
q0 154 -64 248q-65 94 -210 94t-210 -94t-65 -248v-55h-20v55q0 163 70 263t225 100z" />
    <glyph glyph-name="uni0418" unicode="&#x418;" horiz-adv-x="759" 
d="M82 0v1434h20v-1407l541 1407h35v-1434h-21v1413l-544 -1413h-31z" />
    <glyph glyph-name="uni0419" unicode="&#x419;" horiz-adv-x="759" 
d="M82 0v1434h20v-1407l541 1407h35v-1434h-21v1413l-544 -1413h-31zM395 1534q-76 0 -131 38t-57 105h22q3 -59 51 -92t114 -33t116 33q49 33 51 92h23q-2 -67 -58 -105t-131 -38z" />
    <glyph glyph-name="uni041A" unicode="&#x41a;" horiz-adv-x="817" 
d="M102 0h-20v1434h20v-834l566 834h24l-463 -684l506 -750h-24l-494 731l-115 -168v-563z" />
    <glyph glyph-name="uni041B" unicode="&#x41b;" horiz-adv-x="884" 
d="M782 1413h-436l-45 -1069q-8 -176 -35 -235q-43 -106 -174 -111h-10v20q57 0 96 23t58 47q33 46 42 165q1 26 3 93l45 1088h477v-1434h-21v1413z" />
    <glyph glyph-name="uni041C" unicode="&#x41c;" horiz-adv-x="993" 
d="M102 0h-20v1434h37l377 -1407l381 1407h34v-1434h-20v1413l-381 -1409h-29l-379 1409v-1413z" />
    <glyph glyph-name="uni041D" unicode="&#x41d;" horiz-adv-x="757" 
d="M655 707h-553v-707h-20v1434h20v-707h553v707h21v-1434h-21v707z" />
    <glyph glyph-name="uni041E" unicode="&#x41e;" horiz-adv-x="763" 
d="M102 1081v-729q0 -154 67 -248t212 -94t213 94t68 248v729q0 152 -68 247t-213 95t-212 -95t-67 -247zM82 352v729q0 160 73 261q73 102 227 102t228 -102q72 -102 72 -261v-729q0 -160 -73 -261t-227 -101t-228 101q-72 101 -72 261z" />
    <glyph glyph-name="uni041F" unicode="&#x41f;" horiz-adv-x="757" 
d="M655 1413h-553v-1413h-20v1434h594v-1434h-21v1413z" />
    <glyph glyph-name="uni0420" unicode="&#x420;" horiz-adv-x="731" 
d="M102 639h217q164 0 237 75t73 236v140q0 324 -271 323h-256v-774zM82 1434h276q291 0 291 -344v-140q0 -170 -80 -251t-250 -81h-217v-618h-20v1434z" />
    <glyph glyph-name="uni0421" unicode="&#x421;" 
d="M377 1444q151 0 223 -102t72 -261v-108h-21v108q0 152 -65 247q-66 95 -209 95t-209 -95t-66 -247v-729q0 -152 66 -247t209 -95t209 95t65 247v152h21v-152q0 -160 -72 -261t-224 -101t-222 101q-72 101 -72 261v729q0 159 72 261t223 102z" />
    <glyph glyph-name="uni0422" unicode="&#x422;" horiz-adv-x="831" 
d="M426 0h-20v1413h-324v21h668v-21h-324v-1413z" />
    <glyph glyph-name="uni0423" unicode="&#x423;" horiz-adv-x="892" 
d="M131 0v20q134 0 186 116q14 30 33 81l94 264l-362 953h22l351 -924l333 924h23l-442 -1223q-39 -111 -87 -161t-151 -50z" />
    <glyph glyph-name="uni0424" unicode="&#x424;" horiz-adv-x="1107" 
d="M563 172h135q164 0 236 88t72 256v391q0 168 -71 256t-237 88h-135v-1079zM543 1251h-135q-164 0 -235 -88t-71 -256v-391q0 -168 71 -256t235 -88h135v1079zM563 1272h135q328 0 328 -365v-391q0 -365 -328 -364h-135v-152h-20v152h-135q-172 0 -249 93t-77 271v391
q0 177 77 271t249 94h135v162h20v-162z" />
    <glyph glyph-name="uni0425" unicode="&#x425;" horiz-adv-x="913" 
d="M809 0l-352 723l-351 -723h-24l364 745l-340 689h23l328 -666l327 666h23l-338 -689l362 -745h-22z" />
    <glyph glyph-name="uni0426" unicode="&#x426;" horiz-adv-x="931" 
d="M846 -193h-21v193h-702v1434h18v-1414h553v1414h21v-1414h131v-213z" />
    <glyph glyph-name="uni0427" unicode="&#x427;" horiz-adv-x="761" 
d="M659 0v752q-86 -178 -286 -179q-147 -1 -219 103t-72 260v498h20v-498q0 -146 66 -244t205 -98q211 0 286 207v633h21v-1434h-21z" />
    <glyph glyph-name="uni0428" unicode="&#x428;" horiz-adv-x="1112" 
d="M82 1434h20v-1414h445v1414h20v-1414h443v1414h20v-1434h-948v1434z" />
    <glyph glyph-name="uni0429" unicode="&#x429;" horiz-adv-x="1243" 
d="M1161 -193h-20v193h-1059v1434h20v-1414h443v1414h20v-1414h445l-2 1414h20v-1414h133v-213z" />
    <glyph glyph-name="uni042A" unicode="&#x42a;" horiz-adv-x="944" 
d="M315 20h256q270 0 271 324v139q0 162 -74 237t-236 75h-217v-775zM315 815h217q170 0 250 -81t80 -251v-139q0 -344 -291 -344h-276v1413h-213v21h233v-619z" />
    <glyph glyph-name="uni042B" unicode="&#x42b;" horiz-adv-x="890" 
d="M102 20h254q272 0 273 324v139q0 162 -74 237t-238 75h-215v-775zM788 1434h21v-1434h-21v1434zM102 815h215q172 0 252 -81t80 -251v-139q0 -344 -293 -344h-274v1434h20v-619z" />
    <glyph glyph-name="uni042C" unicode="&#x42c;" horiz-adv-x="731" 
d="M102 20h254q272 0 273 324v139q0 162 -74 237t-238 75h-215v-775zM102 815h215q172 0 252 -81t80 -251v-139q0 -344 -293 -344h-274v1434h20v-619z" />
    <glyph glyph-name="uni042D" unicode="&#x42d;" horiz-adv-x="751" 
d="M375 1444q151 0 223 -102t72 -261v-729q0 -160 -72 -261t-224 -101t-222 101t-70 261v125h20v-125q0 -152 65 -247t209 -95t209 95t64 247v379h-340v21h340v329q0 152 -64 247q-65 95 -209 95t-209 -95t-65 -247v-75h-20v75q0 159 70 261t223 102z" />
    <glyph glyph-name="uni042E" unicode="&#x42e;" horiz-adv-x="1077" 
d="M694 1423q-145 0 -212 -94t-66 -248v-729q0 -152 66 -247t212 -95q145 0 213 95t68 247v729q0 154 -68 248t-213 94zM395 1081q1 163 73 263t227 100t228 -102t72 -261v-729q-1 -160 -73 -261t-227 -101t-227 100t-73 262v355h-293v-707h-20v1434h20v-707h293v354z" />
    <glyph glyph-name="uni042F" unicode="&#x42f;" horiz-adv-x="772" 
d="M670 1413h-256q-270 0 -271 -301v-129q0 -168 82 -229t256 -62h189v721zM670 672h-189q-164 0 -251 -60t-87 -217v-225q0 -113 -37 -170h-24q41 51 41 170v225q0 252 239 285q-240 35 -239 303v129q0 322 291 322h276v-1434h-20v672z" />
    <glyph glyph-name="uni0430" unicode="&#x430;" horiz-adv-x="925" 
d="M459 1409l-262 -1040h530zM733 348h-543l-88 -348h-20l362 1436h29l371 -1436h-21z" />
    <glyph glyph-name="uni0431" unicode="&#x431;" horiz-adv-x="759" 
d="M102 20h271q153 0 219 80t65 234v168q0 158 -72 218q-73 60 -237 60h-246v-760zM102 801h246q172 0 251 -67t79 -232v-168q0 -334 -305 -334h-291v1434h549v-21h-529v-612z" />
    <glyph glyph-name="uni0432" unicode="&#x432;" horiz-adv-x="741" 
d="M102 20h260q276 0 277 308v129q0 161 -77 229t-238 68h-222v-734zM102 774h199q170 0 240 54t69 214v99q0 141 -54 207t-194 65h-260v-639zM82 1434h280q148 0 208 -73t61 -220v-99q0 -128 -46 -196t-167 -82q242 -29 241 -307v-129q0 -328 -297 -328h-280v1434z" />
    <glyph glyph-name="uni0433" unicode="&#x433;" horiz-adv-x="688" 
d="M606 1413h-504v-1413h-20v1434h524v-21z" />
    <glyph glyph-name="uni0434" unicode="&#x434;" horiz-adv-x="1003" 
d="M770 20v1393h-424l-61 -1141q-6 -179 -70 -252h555zM922 -203h-21v203h-799v-203h-20v223h104q46 46 60 104t18 150l62 1160h465v-1414h131v-223z" />
    <glyph glyph-name="uni0435" unicode="&#x435;" horiz-adv-x="700" 
d="M102 737h437v-20h-437v-697h516v-20h-536v1434h536v-21h-516v-676z" />
    <glyph glyph-name="uni0436" unicode="&#x436;" horiz-adv-x="1296" 
d="M657 0h-20v571l-117 191l-416 -762h-22l426 780l-402 654h23l508 -828v828h20v-828l508 828h25l-402 -654l426 -780h-22l-416 762l-119 -193v-569z" />
    <glyph glyph-name="uni0437" unicode="&#x437;" 
d="M377 1444q155 0 225 -100t70 -263v-37q0 -102 -58 -185t-159 -111q104 -20 160 -100t57 -185v-111q0 -162 -71 -262t-225 -100t-224 100t-70 262v99h20v-99q0 -152 65 -247t210 -95t210 95t64 247v111q-1 117 -73 195t-189 79h-96v21h96q111 0 187 87t75 199v37
q0 154 -64 248q-65 94 -210 94t-210 -94t-65 -248v-55h-20v55q0 163 70 263t225 100z" />
    <glyph glyph-name="uni0438" unicode="&#x438;" horiz-adv-x="759" 
d="M82 0v1434h20v-1407l541 1407h35v-1434h-21v1413l-544 -1413h-31z" />
    <glyph glyph-name="uni0439" unicode="&#x439;" horiz-adv-x="759" 
d="M82 0v1434h20v-1407l541 1407h35v-1434h-21v1413l-544 -1413h-31zM395 1526q-76 0 -131 38t-57 105h22q3 -59 51 -92t114 -33t116 33q49 33 51 92h23q-2 -67 -58 -105t-131 -38z" />
    <glyph glyph-name="uni043A" unicode="&#x43a;" horiz-adv-x="817" 
d="M102 0h-20v1434h20v-834l566 834h24l-463 -684l506 -750h-24l-494 731l-115 -168v-563z" />
    <glyph glyph-name="uni043B" unicode="&#x43b;" horiz-adv-x="884" 
d="M782 1413h-436l-45 -1069q-8 -176 -35 -235q-43 -106 -174 -111h-10v20q57 0 96 23t58 47q33 46 42 165q1 26 3 93l45 1088h477v-1434h-21v1413z" />
    <glyph glyph-name="uni043C" unicode="&#x43c;" horiz-adv-x="993" 
d="M102 0h-20v1434h37l377 -1407l381 1407h34v-1434h-20v1413l-381 -1409h-29l-379 1409v-1413z" />
    <glyph glyph-name="uni043D" unicode="&#x43d;" horiz-adv-x="757" 
d="M655 707h-553v-707h-20v1434h20v-707h553v707h21v-1434h-21v707z" />
    <glyph glyph-name="uni043E" unicode="&#x43e;" horiz-adv-x="763" 
d="M102 1081v-729q0 -154 67 -248t212 -94t213 94t68 248v729q0 152 -68 247t-213 95t-212 -95t-67 -247zM82 352v729q0 160 73 261q73 102 227 102t228 -102q72 -102 72 -261v-729q0 -160 -73 -261t-227 -101t-228 101q-72 101 -72 261z" />
    <glyph glyph-name="uni043F" unicode="&#x43f;" horiz-adv-x="757" 
d="M655 1413h-553v-1413h-20v1434h594v-1434h-21v1413z" />
    <glyph glyph-name="uni0440" unicode="&#x440;" horiz-adv-x="731" 
d="M102 639h217q164 0 237 75t73 236v140q0 324 -271 323h-256v-774zM82 1434h276q291 0 291 -344v-140q0 -170 -80 -251t-250 -81h-217v-618h-20v1434z" />
    <glyph glyph-name="uni0441" unicode="&#x441;" 
d="M377 1444q151 0 223 -102t72 -261v-108h-21v108q0 152 -65 247q-66 95 -209 95t-209 -95t-66 -247v-729q0 -152 66 -247t209 -95t209 95t65 247v152h21v-152q0 -160 -72 -261t-224 -101t-222 101q-72 101 -72 261v729q0 159 72 261t223 102z" />
    <glyph glyph-name="uni0442" unicode="&#x442;" horiz-adv-x="831" 
d="M426 0h-20v1413h-324v21h668v-21h-324v-1413z" />
    <glyph glyph-name="uni0443" unicode="&#x443;" horiz-adv-x="892" 
d="M131 0v20q134 0 186 116q14 30 33 81l94 264l-362 953h22l351 -924l333 924h23l-442 -1223q-39 -111 -87 -161t-151 -50z" />
    <glyph glyph-name="uni0444" unicode="&#x444;" horiz-adv-x="1107" 
d="M563 172h135q164 0 236 88t72 256v391q0 168 -71 256t-237 88h-135v-1079zM543 1251h-135q-164 0 -235 -88t-71 -256v-391q0 -168 71 -256t235 -88h135v1079zM563 1272h135q328 0 328 -365v-391q0 -365 -328 -364h-135v-152h-20v152h-135q-172 0 -249 93t-77 271v391
q0 177 77 271t249 94h135v162h20v-162z" />
    <glyph glyph-name="uni0445" unicode="&#x445;" horiz-adv-x="913" 
d="M809 0l-352 723l-351 -723h-24l364 745l-340 689h23l328 -666l327 666h23l-338 -689l362 -745h-22z" />
    <glyph glyph-name="uni0446" unicode="&#x446;" horiz-adv-x="931" 
d="M846 -193h-21v193h-702v1434h18v-1414h553v1414h21v-1414h131v-213z" />
    <glyph glyph-name="uni0447" unicode="&#x447;" horiz-adv-x="761" 
d="M659 0v752q-86 -178 -286 -179q-147 -1 -219 103t-72 260v498h20v-498q0 -146 66 -244t205 -98q211 0 286 207v633h21v-1434h-21z" />
    <glyph glyph-name="uni0448" unicode="&#x448;" horiz-adv-x="1112" 
d="M82 1434h20v-1414h445v1414h20v-1414h443v1414h20v-1434h-948v1434z" />
    <glyph glyph-name="uni0449" unicode="&#x449;" horiz-adv-x="1243" 
d="M1161 -193h-20v193h-1059v1434h20v-1414h443v1414h20v-1414h445l-2 1414h20v-1414h133v-213z" />
    <glyph glyph-name="uni044A" unicode="&#x44a;" horiz-adv-x="944" 
d="M315 20h256q270 0 271 324v139q0 162 -74 237t-236 75h-217v-775zM315 815h217q170 0 250 -81t80 -251v-139q0 -344 -291 -344h-276v1413h-213v21h233v-619z" />
    <glyph glyph-name="uni044B" unicode="&#x44b;" horiz-adv-x="890" 
d="M102 20h254q272 0 273 324v139q0 162 -74 237t-238 75h-215v-775zM788 1434h21v-1434h-21v1434zM102 815h215q172 0 252 -81t80 -251v-139q0 -344 -293 -344h-274v1434h20v-619z" />
    <glyph glyph-name="uni044C" unicode="&#x44c;" horiz-adv-x="731" 
d="M102 20h254q272 0 273 324v139q0 162 -74 237t-238 75h-215v-775zM102 815h215q172 0 252 -81t80 -251v-139q0 -344 -293 -344h-274v1434h20v-619z" />
    <glyph glyph-name="uni044D" unicode="&#x44d;" horiz-adv-x="751" 
d="M375 1444q151 0 223 -102t72 -261v-729q0 -160 -72 -261t-224 -101t-222 101t-70 261v125h20v-125q0 -152 65 -247t209 -95t209 95t64 247v379h-340v21h340v329q0 152 -64 247q-65 95 -209 95t-209 -95t-65 -247v-75h-20v75q0 159 70 261t223 102z" />
    <glyph glyph-name="uni044E" unicode="&#x44e;" horiz-adv-x="1077" 
d="M694 1423q-145 0 -212 -94t-66 -248v-729q0 -152 66 -247t212 -95q145 0 213 95t68 247v729q0 154 -68 248t-213 94zM395 1081q1 163 73 263t227 100t228 -102t72 -261v-729q-1 -160 -73 -261t-227 -101t-227 100t-73 262v355h-293v-707h-20v1434h20v-707h293v354z" />
    <glyph glyph-name="uni044F" unicode="&#x44f;" horiz-adv-x="772" 
d="M670 1413h-256q-270 0 -271 -301v-129q0 -168 82 -229t256 -62h189v721zM670 672h-189q-164 0 -251 -60t-87 -217v-225q0 -113 -37 -170h-24q41 51 41 170v225q0 252 239 285q-240 35 -239 303v129q0 322 291 322h276v-1434h-20v672z" />
    <glyph glyph-name="uni0451" unicode="&#x451;" horiz-adv-x="700" 
d="M102 737h437v-20h-437v-697h516v-20h-536v1434h536v-21h-516v-676zM410 1696h20v-160h-20v160zM274 1696h21v-160h-21v160z" />
    <glyph glyph-name="uni1E02" unicode="&#x1e02;" horiz-adv-x="741" 
d="M102 20h260q276 0 277 308v129q0 161 -77 229t-238 68h-222v-734zM102 774h199q170 0 240 54t69 214v99q0 141 -54 207t-194 65h-260v-639zM82 1434h280q148 0 208 -73t61 -220v-99q0 -128 -46 -196t-167 -82q242 -29 241 -307v-129q0 -328 -297 -328h-280v1434z
M319 1686h21v-160h-21v160z" />
    <glyph glyph-name="uni1E03" unicode="&#x1e03;" horiz-adv-x="741" 
d="M102 20h260q276 0 277 308v129q0 161 -77 229t-238 68h-222v-734zM102 774h199q170 0 240 54t69 214v99q0 141 -54 207t-194 65h-260v-639zM82 1434h280q148 0 208 -73t61 -220v-99q0 -128 -46 -196t-167 -82q242 -29 241 -307v-129q0 -328 -297 -328h-280v1434z
M319 1686h21v-160h-21v160z" />
    <glyph glyph-name="uni1E0A" unicode="&#x1e0a;" horiz-adv-x="761" 
d="M102 20h273q147 0 216 92t68 244v719q0 154 -69 246q-70 92 -217 92h-271v-1393zM82 1434h291q155 0 231 -98t76 -261v-719q0 -160 -75 -258t-230 -98h-293v1434zM330 1686h20v-160h-20v160z" />
    <glyph glyph-name="uni1E0B" unicode="&#x1e0b;" horiz-adv-x="761" 
d="M102 20h273q147 0 216 92t68 244v719q0 154 -69 246q-70 92 -217 92h-271v-1393zM82 1434h291q155 0 231 -98t76 -261v-719q0 -160 -75 -258t-230 -98h-293v1434zM330 1686h20v-160h-20v160z" />
    <glyph glyph-name="uni1E1E" unicode="&#x1e1e;" horiz-adv-x="679" 
d="M102 700h416v-20h-416v-680h-20v1434h516v-21h-496v-713zM330 1683h20v-159h-20v159z" />
    <glyph glyph-name="uni1E1F" unicode="&#x1e1f;" horiz-adv-x="679" 
d="M102 700h416v-20h-416v-680h-20v1434h516v-21h-496v-713zM350 1686h21v-160h-21v160z" />
    <glyph glyph-name="uni1E40" unicode="&#x1e40;" horiz-adv-x="993" 
d="M102 0h-20v1434h37l377 -1407l381 1407h34v-1434h-20v1413l-381 -1409h-29l-379 1409v-1413zM485 1700h21v-166h-21v166z" />
    <glyph glyph-name="uni1E41" unicode="&#x1e41;" horiz-adv-x="993" 
d="M102 0h-20v1434h37l377 -1407l381 1407h34v-1434h-20v1413l-381 -1409h-29l-379 1409v-1413zM485 1702h21v-160h-21v160z" />
    <glyph glyph-name="uni1E56" unicode="&#x1e56;" horiz-adv-x="731" 
d="M102 639h217q164 0 237 75t73 236v140q0 324 -271 323h-256v-774zM82 1434h276q291 0 291 -344v-140q0 -170 -80 -251t-250 -81h-217v-618h-20v1434zM317 1686h21v-160h-21v160z" />
    <glyph glyph-name="uni1E57" unicode="&#x1e57;" horiz-adv-x="731" 
d="M102 639h217q164 0 237 75t73 236v140q0 324 -271 323h-256v-774zM82 1434h276q291 0 291 -344v-140q0 -170 -80 -251t-250 -81h-217v-618h-20v1434zM334 1686h20v-160h-20v160z" />
    <glyph glyph-name="uni1E60" unicode="&#x1e60;" 
d="M670 1087v-24h-21v24q0 150 -64 243q-65 93 -207 93t-206 -92q-64 -93 -63 -219q0 -126 58 -206t141 -132q83 -53 165 -106t140 -134t59 -188q0 -160 -71 -258t-225 -98t-224 98t-70 258v68h20v-68q0 -152 66 -244t209 -92t209 92t65 244q0 102 -58 180t-140 130
t-165 106t-142 137q-58 82 -58 191q0 164 70 258t222 95q150 1 220 -98t70 -258zM367 1688h20v-160h-20v160z" />
    <glyph glyph-name="uni1E61" unicode="&#x1e61;" 
d="M670 1087v-24h-21v24q0 150 -64 243q-65 93 -207 93t-206 -92q-64 -93 -63 -219q0 -126 58 -206t141 -132q83 -53 165 -106t140 -134t59 -188q0 -160 -71 -258t-225 -98t-224 98t-70 258v68h20v-68q0 -152 66 -244t209 -92t209 92t65 244q0 102 -58 180t-140 130
t-165 106t-142 137q-58 82 -58 191q0 164 70 258t222 95q150 1 220 -98t70 -258zM385 1706h21v-160h-21v160z" />
    <glyph glyph-name="uni1E6A" unicode="&#x1e6a;" horiz-adv-x="831" 
d="M426 0h-20v1413h-324v21h668v-21h-324v-1413zM406 1690h20v-160h-20v160z" />
    <glyph glyph-name="uni1E6B" unicode="&#x1e6b;" horiz-adv-x="831" 
d="M418 0h-21v1413h-323v21h667v-21h-323v-1413zM397 1686h21v-160h-21v160z" />
    <glyph glyph-name="Wgrave" unicode="&#x1e80;" horiz-adv-x="1282" 
d="M653 1405l-268 -1405h-31l-272 1434h20l269 -1405l266 1396h33l250 -1386l260 1395h20l-268 -1434h-27zM549 1716h29l149 -176h-27z" />
    <glyph glyph-name="wgrave" unicode="&#x1e81;" horiz-adv-x="1282" 
d="M653 1405l-268 -1405h-31l-272 1434h20l269 -1405l266 1396h33l250 -1386l260 1395h20l-268 -1434h-27zM549 1716h29l149 -176h-27z" />
    <glyph glyph-name="Wacute" unicode="&#x1e82;" horiz-adv-x="1282" 
d="M653 1405l-268 -1405h-31l-272 1434h20l269 -1405l266 1396h33l250 -1386l260 1395h20l-268 -1434h-27zM735 1698h29l-152 -176h-26z" />
    <glyph glyph-name="wacute" unicode="&#x1e83;" horiz-adv-x="1282" 
d="M653 1405l-268 -1405h-31l-272 1434h20l269 -1405l266 1396h33l250 -1386l260 1395h20l-268 -1434h-27zM735 1698h29l-152 -176h-26z" />
    <glyph glyph-name="Wdieresis" unicode="&#x1e84;" horiz-adv-x="1282" 
d="M653 1405l-268 -1405h-31l-272 1434h20l269 -1405l266 1396h33l250 -1386l260 1395h20l-268 -1434h-27zM711 1696h20v-160h-20v160zM575 1696h21v-160h-21v160z" />
    <glyph glyph-name="wdieresis" unicode="&#x1e85;" horiz-adv-x="1282" 
d="M653 1405l-268 -1405h-31l-272 1434h20l269 -1405l266 1396h33l250 -1386l260 1395h20l-268 -1434h-27zM711 1696h20v-160h-20v160zM575 1696h21v-160h-21v160z" />
    <glyph glyph-name="Ygrave" unicode="&#x1ef2;" horiz-adv-x="872" 
d="M424 0v594l-342 840h20l332 -811l334 811h23l-347 -840v-594h-20zM311 1716h29l149 -176h-26z" />
    <glyph glyph-name="ygrave" unicode="&#x1ef3;" horiz-adv-x="872" 
d="M424 0v594l-342 840h20l332 -811l334 811h23l-347 -840v-594h-20zM311 1716h29l149 -176h-26z" />
    <glyph glyph-name="figuredash" unicode="&#x2012;" horiz-adv-x="993" 
d="M82 709v18h829v-18h-829z" />
    <glyph glyph-name="endash" unicode="&#x2013;" horiz-adv-x="759" 
d="M82 709v18h596v-18h-596z" />
    <glyph glyph-name="emdash" unicode="&#x2014;" horiz-adv-x="993" 
d="M82 709v18h829v-18h-829z" />
    <glyph glyph-name="quoteleft" unicode="&#x2018;" horiz-adv-x="215" 
d="M102 1307v-160h-20v160l37 127h14l-33 -127h2z" />
    <glyph glyph-name="quoteright" unicode="&#x2019;" horiz-adv-x="215" 
d="M113 1274v160h20v-160l-37 -127h-14l33 127h-2z" />
    <glyph glyph-name="quotesinglbase" unicode="&#x201a;" horiz-adv-x="215" 
d="M113 0v160h20v-160l-37 -127h-14l33 127h-2z" />
    <glyph glyph-name="quotedblleft" unicode="&#x201c;" horiz-adv-x="296" 
d="M184 1307v-160h-20v160l37 127h14l-33 -127h2zM102 1307v-160h-20v160l37 127h14l-33 -127h2z" />
    <glyph glyph-name="quotedblright" unicode="&#x201d;" horiz-adv-x="296" 
d="M195 1274v160h20v-160l-37 -127h-14l33 127h-2zM113 1274v160h20v-160l-37 -127h-14l33 127h-2z" />
    <glyph glyph-name="quotedblbase" unicode="&#x201e;" horiz-adv-x="313" 
d="M211 0v160h20v-160l-36 -127h-15l33 127h-2zM113 0v160h20v-160l-37 -127h-14l33 127h-2z" />
    <glyph glyph-name="dagger" unicode="&#x2020;" horiz-adv-x="800" 
d="M412 1434v-435h307v-22h-307v-1110h-23v1110h-307v22h307v435h23z" />
    <glyph glyph-name="daggerdbl" unicode="&#x2021;" horiz-adv-x="800" 
d="M412 1434v-435h307v-22h-307v-649h307v-23h-307v-438h-23v438h-307v23h307v649h-307v22h307v435h23z" />
    <glyph glyph-name="bullet" unicode="&#x2022;" horiz-adv-x="385" 
d="M193 786q29 0 49 -20t20 -49t-20 -49t-49 -20t-49 20t-21 49q0 29 20 49q21 20 50 20z" />
    <glyph glyph-name="ellipsis" unicode="&#x2026;" horiz-adv-x="356" 
d="M254 160h20v-160h-20v160zM166 160h20v-160h-20v160zM82 160h20v-160h-20v160z" />
    <glyph glyph-name="perthousand" unicode="&#x2030;" horiz-adv-x="1710" 
d="M1448 856q-160 0 -160 -213v-407q0 -215 160 -216q160 0 160 216v407q0 213 -160 213zM952 856q-160 0 -159 -213v-407q0 -215 159 -216q160 0 160 216v407q0 213 -160 213zM1448 877q180 0 180 -234v-407q0 -102 -42 -169t-137 -67t-138 68t-43 168v407q0 100 42 167
t138 67zM952 877q180 0 181 -234v-407q0 -102 -42 -169q-41 -67 -137 -67t-139 68t-43 168v407q0 100 42 167t138 67zM262 1415q-160 0 -160 -215v-416q0 -213 160 -213t160 213v416q0 215 -160 215zM877 1436h22l-565 -1436h-23zM262 1436q94 0 137 -68t43 -168v-416
q0 -100 -42 -167t-138 -67t-138 68q-42 66 -42 166v416q0 100 43 168t137 68z" />
    <glyph glyph-name="guilsinglleft" unicode="&#x2039;" horiz-adv-x="321" 
d="M219 231l-137 486l137 487h21l-138 -487l138 -486h-21z" />
    <glyph glyph-name="guilsinglright" unicode="&#x203a;" horiz-adv-x="321" 
d="M82 233l137 486l-137 487h20l138 -487l-138 -486h-20z" />
    <glyph glyph-name="fraction" unicode="&#x2044;" horiz-adv-x="749" 
d="M647 1434h21l-566 -1434h-20z" />
    <glyph glyph-name="zerosuperior" unicode="&#x2070;" horiz-adv-x="552" 
d="M102 1405v-463q0 -94 42 -154t132 -59q90 0 133 59q42 59 42 154v463q0 93 -42 153q-43 60 -133 60t-132 -60t-42 -153zM82 942v463q0 104 47 169q47 64 147 64t148 -64q47 -65 47 -169v-463q0 -104 -47 -169q-48 -65 -148 -65t-147 66q-47 64 -47 168z" />
    <glyph glyph-name="foursuperior" unicode="&#x2074;" horiz-adv-x="593" 
d="M414 954v639l-310 -639h310zM512 934h-78v-215h-20v215h-332v20l326 674h26v-674h78v-20z" />
    <glyph glyph-name="fivesuperior" unicode="&#x2075;" horiz-adv-x="544" 
d="M102 973v-35q0 -94 41 -154t129 -59q170 0 170 213v129q0 213 -170 213q-51 0 -97 -31t-58 -78v-8h-21l23 465h323v-20h-305l-18 -389q51 81 151 81t147 -65q46 -66 46 -168v-129q0 -102 -46 -168q-47 -66 -145 -66t-144 66t-46 168v35h20z" />
    <glyph glyph-name="sixsuperior" unicode="&#x2076;" horiz-adv-x="552" 
d="M276 1237q-174 0 -174 -215v-80q0 -94 42 -154t132 -59q90 0 133 59q42 59 42 154v80q-1 215 -175 215zM276 1638q190 0 191 -229v-4h-21v4q0 209 -170 209q-90 0 -132 -59t-42 -154v-262q47 115 174 114q100 0 148 -65q47 -66 47 -170v-80q0 -104 -47 -169
q-48 -65 -148 -65t-147 66q-47 64 -47 168v463q0 105 47 169t147 64z" />
    <glyph glyph-name="sevensuperior" unicode="&#x2077;" horiz-adv-x="542" 
d="M82 1608v20h379v-18l-281 -891h-22l280 889h-356z" />
    <glyph glyph-name="eightsuperior" unicode="&#x2078;" horiz-adv-x="565" 
d="M283 1182q-180 0 -181 -187v-61q0 -94 44 -150t136 -55q92 0 137 55q44 55 44 150v61q0 187 -180 187zM283 1618q-89 0 -135 -54t-46 -145v-30q0 -186 181 -187q180 0 180 187v30q0 91 -45 145t-135 54zM283 1638q98 0 149 -60t51 -159v-30q0 -158 -123 -197
q123 -35 123 -197v-61q0 -102 -50 -164t-150 -61q-100 0 -151 61q-50 61 -50 164v61q0 162 123 197q-123 39 -123 197v30q0 98 51 159q52 60 150 60z" />
    <glyph glyph-name="ninesuperior" unicode="&#x2079;" horiz-adv-x="552" 
d="M276 1618q-90 0 -132 -59t-42 -154v-82q0 -93 42 -153t132 -60t133 59q42 59 42 154v82q0 94 -42 154q-43 59 -133 59zM276 1638q100 0 148 -64q47 -65 47 -169v-463q0 -104 -47 -169q-46 -65 -146 -65t-148 64q-48 63 -48 166v6h20v-6q0 -209 174 -209q90 0 133 59
q42 59 42 154v260q-45 -113 -175 -112q-100 0 -147 64t-47 169v82q0 105 47 169t147 64z" />
    <glyph glyph-name="zeroinferior" unicode="&#x2080;" horiz-adv-x="552" 
d="M102 553v-463q0 -94 42 -153t132 -59t132 58q42 60 43 154v463q0 93 -42 153q-43 60 -133 60t-132 -60t-42 -153zM82 90v463q0 104 47 169q47 64 147 64t148 -64q47 -65 47 -169v-463q0 -104 -47 -169q-48 -65 -148 -65t-147 66q-47 64 -47 168z" />
    <glyph glyph-name="oneinferior" unicode="&#x2081;" horiz-adv-x="337" 
d="M236 -133v868q-49 -96 -152 -108l-2 20q111 12 147 129h27v-909h-20z" />
    <glyph glyph-name="twoinferior" unicode="&#x2082;" horiz-adv-x="544" 
d="M272 786q190 0 191 -237q0 -121 -124 -247q-53 -52 -105 -107t-91 -135t-41 -169v-4h353v-20h-373v10q0 96 37 179q37 82 90 140t106 111q129 129 127 242q0 217 -170 217t-170 -221v-43h-20v43q0 105 45 173t145 68z" />
    <glyph glyph-name="threeinferior" unicode="&#x2083;" horiz-adv-x="544" 
d="M272 786q98 0 145 -65q46 -66 46 -168v-23q0 -63 -33 -116t-90 -74q57 -16 90 -66t33 -114v-70q0 -102 -46 -168q-47 -66 -145 -66t-144 66t-46 168v39h20v-39q0 -213 170 -213t170 213v70q0 72 -42 121t-113 49h-68v20h68q69 0 113 56t42 124v23q0 213 -170 213
t-170 -213v-25h-20v25q0 101 46 167t144 66z" />
    <glyph glyph-name="fourinferior" unicode="&#x2084;" horiz-adv-x="593" 
d="M414 92v639l-310 -639h310zM512 72h-78v-215h-20v215h-332v20l326 674h26v-674h78v-20z" />
    <glyph glyph-name="fiveinferior" unicode="&#x2085;" horiz-adv-x="544" 
d="M102 131v-35q0 -94 41 -153t129 -60q170 0 170 213v129q0 213 -170 213q-51 0 -97 -30t-58 -78v-8h-21l23 464h323v-20h-305l-18 -389q51 82 151 82t146 -66t47 -168v-129q0 -102 -46 -168q-47 -66 -145 -66t-144 66t-46 168v35h20z" />
    <glyph glyph-name="sixinferior" unicode="&#x2086;" horiz-adv-x="552" 
d="M276 385q-174 0 -174 -215v-80q0 -94 42 -153t132 -59t132 58q42 60 43 154v80q-1 215 -175 215zM276 786q190 0 191 -229v-4h-21v4q0 209 -170 209q-90 0 -132 -59t-42 -154v-262q47 115 174 115q100 0 148 -66t47 -170v-80q0 -104 -47 -169q-48 -65 -148 -65t-147 66
q-47 64 -47 168v463q0 105 47 169t147 64z" />
    <glyph glyph-name="seveninferior" unicode="&#x2087;" horiz-adv-x="542" 
d="M82 766v20h379v-18l-281 -891h-22l280 889h-356z" />
    <glyph glyph-name="eightinferior" unicode="&#x2088;" horiz-adv-x="565" 
d="M283 330q-180 0 -181 -187v-61q0 -94 44 -150t136 -55q92 0 137 55q44 55 44 150v61q0 187 -180 187zM283 766q-89 0 -135 -54t-46 -145v-30q0 -186 181 -187q180 0 180 187v30q0 91 -45 145t-135 54zM283 786q98 0 149 -60t51 -159v-30q0 -158 -123 -197
q123 -35 123 -197v-61q0 -102 -50 -164t-150 -61q-100 0 -151 61q-50 61 -50 164v61q0 162 123 197q-123 39 -123 197v30q0 98 51 159q52 60 150 60z" />
    <glyph glyph-name="nineinferior" unicode="&#x2089;" horiz-adv-x="552" 
d="M276 766q-90 0 -132 -59t-42 -154v-82q0 -93 42 -153t132 -60t133 59q42 59 42 154v82q0 94 -42 154q-43 59 -133 59zM276 786q100 0 148 -64q47 -65 47 -169v-463q0 -104 -47 -169q-46 -65 -146 -65t-148 64q-48 63 -48 166v6h20v-6q0 -209 174 -209q90 -1 132 59
t43 154v260q-45 -113 -175 -112q-100 0 -147 64t-47 169v82q0 105 47 169t147 64z" />
    <glyph glyph-name="Euro" unicode="&#x20ac;" horiz-adv-x="815" 
d="M158 842v239q0 158 68 260q70 103 220 103t219 -102t68 -261v-63h-20v63q-1 150 -63 246t-204 96t-204 -96q-63 -96 -64 -246v-239h438v-21h-438v-200h438v-21h-438v-248q0 -150 62 -246t205 -96q142 0 205 96q62 96 63 246v76h20v-76q-1 -158 -69 -260t-218 -102
t-220 102t-68 260v248h-97v21h97v200h-97v21h97z" />
    <glyph glyph-name="uni20B9" unicode="&#x20b9;" horiz-adv-x="759" 
d="M678 1413h-350q111 -39 164 -139t53 -227h133v-21h-133q-4 -147 -88 -235t-258 -89h-88l532 -702h-27l-534 707v16h117q165 0 243 83t82 220h-434v21h434q0 162 -84 264t-241 102h-109v21h588v-21z" />
    <glyph glyph-name="uni2117" unicode="&#x2117;" horiz-adv-x="1544" 
d="M639 637h147q111 0 160 51t49 162v49q0 219 -182 219h-174v-481zM618 1139h195q203 0 203 -240v-49q0 -119 -55 -176t-175 -58h-147v-354h-21v877zM772 1407q-293 0 -481 -198q-189 -199 -189 -491t188 -491t482 -199q293 0 481 200q188 198 189 491q0 293 -188 491
t-482 197zM772 1427q301 -1 496 -203q194 -202 194 -505t-194 -506t-496 -203q-301 0 -496 203t-194 506q0 303 194 506q195 202 496 202z" />
    <glyph glyph-name="trademark" unicode="&#x2122;" horiz-adv-x="1179" 
d="M584 705h-21v729h29l237 -686l240 686h29v-729h-21v692l-235 -678h-25l-233 678v-692zM258 705h-20v708h-203v21h424v-21h-201v-708z" />
    <glyph glyph-name="uni2153" unicode="&#x2153;" horiz-adv-x="1089" 
d="M817 920q99 0 145 -66t46 -168v-22q0 -64 -33 -116t-90 -73q123 -39 123 -182v-70q0 -102 -46 -168q-46 -65 -144 -65t-145 66q-46 66 -46 167v39h20v-39q0 -213 170 -213t170 213v70q0 72 -42 121t-114 49h-67v20h67q68 -1 113 55t43 126v22q0 213 -170 213t-170 -213
v-24h-20v24q0 102 46 168t144 66zM741 1434h21l-565 -1434h-21zM236 524v869q-49 -96 -152 -109l-2 21q111 12 147 129h27v-910h-20z" />
    <glyph glyph-name="uni2154" unicode="&#x2154;" horiz-adv-x="1228" 
d="M956 920q98 0 144 -66t47 -168v-22q0 -64 -33 -116t-90 -73q123 -39 123 -182v-70q0 -102 -46 -168q-47 -65 -145 -65t-144 66t-46 167v39h20v-39q0 -213 170 -213t170 213v70q0 72 -42 121t-113 49h-68v20h68q69 -1 113 55t42 126v22q0 213 -170 213t-170 -213v-24h-20
v24q0 102 46 168t144 66zM901 1434l-565 -1434h-21l566 1434h20zM272 1444q190 0 191 -238q0 -121 -124 -247q-53 -52 -105 -107t-91 -134t-41 -169v-4h353v-21h-373v11q0 96 37 179t90 140q53 56 106 110q129 130 127 242q0 217 -170 217t-170 -221v-43h-20v43
q0 106 45 174t145 68z" />
    <glyph glyph-name="oneeighth" unicode="&#x215b;" horiz-adv-x="1120" 
d="M838 463q-180 0 -181 -187v-61q0 -94 44 -149q45 -56 137 -56t136 56t44 149v61q0 187 -180 187zM838 899q-90 0 -136 -54t-45 -145v-30q0 -186 181 -187q180 0 180 187v30q0 90 -45 144t-135 55zM838 920q98 0 149 -60t51 -160v-30q0 -158 -123 -197q123 -35 123 -197
v-61q0 -101 -50 -163t-150 -62t-151 61q-50 61 -50 164v61q0 162 123 197q-123 39 -123 197v30q0 98 51 159q52 61 150 61zM197 0h-21l565 1434h21zM236 524v869q-49 -96 -152 -109l-2 21q111 12 147 129h27v-910h-20z" />
    <glyph glyph-name="threeeighths" unicode="&#x215c;" horiz-adv-x="1280" 
d="M997 463q-180 0 -180 -187v-61q0 -94 44 -149q44 -56 136 -56q93 0 137 56t44 149v61q-1 187 -181 187zM997 899q-90 0 -135 -54t-45 -145v-30q0 -186 180 -187q180 0 181 187v30q0 90 -45 145q-46 54 -136 54zM997 920q97 0 149 -60t52 -160v-30q0 -158 -123 -197
q123 -35 123 -197v-61q0 -101 -50 -163t-150 -62t-151 61q-50 61 -50 164v61q0 162 123 197q-123 39 -123 197v30q0 98 51 159t149 61zM901 1434h21l-566 -1434h-20zM272 1444q98 0 144 -66t47 -168v-22q0 -64 -33 -116t-90 -73q123 -39 123 -182v-69q0 -102 -46 -168
q-47 -66 -145 -66t-144 66t-46 168v38h20v-38q0 -213 170 -213t170 213v69q0 72 -42 121t-113 49h-68v21h68q69 0 113 55t42 125v22q0 213 -170 213t-170 -213v-24h-20v24q0 102 46 168t144 66z" />
    <glyph glyph-name="fiveeighths" unicode="&#x215d;" horiz-adv-x="1275" 
d="M993 463q-180 0 -180 -187v-61q0 -94 44 -149q44 -56 136 -56t136 56t45 149v61q-1 187 -181 187zM993 899q-90 0 -135 -54t-45 -145v-30q0 -186 180 -187q180 0 181 187v30q0 90 -46 144t-135 55zM993 920q97 0 149 -60t52 -160v-30q0 -158 -123 -197q123 -35 123 -197
v-61q0 -101 -50 -163t-150 -62t-151 61q-50 61 -50 164v61q0 162 122 197q-123 39 -122 197v30q0 98 51 159t149 61zM332 0l565 1434h21l-566 -1434h-20zM270 1106q100 0 146 -66t47 -168v-129q0 -102 -46 -168q-47 -65 -145 -65t-144 66t-46 167v35h20v-35q0 -94 41 -153
t129 -60q170 0 170 213v129q0 213 -170 213q-51 -1 -97 -31t-58 -77v-8h-21l23 465h323v-21h-305l-18 -389q51 82 151 82z" />
    <glyph glyph-name="seveneighths" unicode="&#x215e;" horiz-adv-x="1073" 
d="M791 463q-180 0 -181 -187v-61q0 -94 44 -149q44 -56 136 -56t137 56q44 56 44 149v61q0 187 -180 187zM791 899q-89 0 -135 -54t-46 -145v-30q0 -186 181 -187q180 0 180 187v30q0 90 -45 144t-135 55zM791 920q98 0 149 -60t51 -160v-30q0 -158 -123 -197
q123 -35 123 -197v-61q0 -101 -50 -163t-150 -62t-151 61q-50 61 -50 164v61q0 162 123 197q-123 39 -123 197v30q0 98 51 159q52 61 150 61zM715 1434l-565 -1434h-21l565 1434h21zM82 1413v21h379v-19l-281 -891h-22l280 889h-356z" />
    <glyph glyph-name="minus" unicode="&#x2212;" horiz-adv-x="786" 
d="M82 727h623v-20h-623v20z" />
    <glyph glyph-name="infinity" unicode="&#x221e;" horiz-adv-x="1120" 
d="M803 963h-31q-203 0 -203 -195t203 -195h31q98 -1 156 49t59 146q0 96 -58 146t-157 49zM348 963h-31q-98 1 -156 -49q-59 -50 -59 -146t58 -145t157 -50h31q203 0 203 195t-203 195zM772 983h31q106 0 171 -55q64 -54 64 -160t-64 -161q-65 -54 -171 -54h-31
q-174 0 -211 135q-39 -135 -213 -135h-31q-106 0 -171 54q-64 53 -64 159t64 162q65 55 171 55h31q174 0 213 -135q37 135 211 135z" />
    <glyph glyph-name="approxequal" unicode="&#x2248;" horiz-adv-x="813" 
d="M250 627q52 0 114 -33t120 -65t104 -29q70 2 127 106l16 -8q-57 -115 -141 -119q-61 -4 -170 62t-168 65q-90 -2 -152 -106l-18 10q72 115 168 117zM250 950q66 2 176 -64t172 -62q62 3 117 106l16 -8q-57 -115 -141 -119q-61 -3 -170 63t-168 64q-90 -2 -152 -107
l-18 11q70 114 168 116z" />
    <glyph glyph-name="commaaccentcomb" unicode="&#xf6c3;" horiz-adv-x="0" 
d="M113 -229v159h20v-159l-37 -127h-14l33 127h-2z" />
    <glyph glyph-name="NULL" horiz-adv-x="0" 
 />
    <glyph glyph-name="CR" horiz-adv-x="317" 
 />
    <glyph glyph-name="zero.alt" horiz-adv-x="763" 
d="M102 1081v-727q0 -154 68 -249t213 -95t212 95t67 249v727q0 154 -67 249t-212 95t-213 -95t-68 -249zM82 354v727q0 162 73 262q73 101 227 101t228 -100q72 -100 72 -263v-727q0 -162 -73 -263t-227 -101t-228 101q-72 101 -72 263z" />
    <glyph glyph-name="one.alt" horiz-adv-x="432" 
d="M350 1436v-1436h-20v1399q-74 -175 -248 -195v21q174 20 240 211h28z" />
    <glyph glyph-name="two.alt" horiz-adv-x="751" 
d="M375 1444q295 0 295 -369q0 -190 -198 -388q-83 -83 -165 -173t-142 -216t-63 -271v-7h562v-20h-582v10q0 215 113 388q79 121 231 273q60 63 110 123q112 138 113 281q0 350 -274 350q-145 0 -209 -99t-64 -255v-67h-20v67q0 165 70 269t223 104z" />
    <glyph glyph-name="three.alt" 
d="M377 1444q155 0 225 -100t70 -263v-34q0 -101 -58 -185t-153 -112q102 -25 156 -103t55 -184v-109q0 -162 -71 -263t-225 -101t-224 101t-70 263v60h20v-60q0 -154 65 -249t210 -95t210 95t64 249v109q1 121 -65 195t-185 81h-108v19h108q113 8 182 91t68 198v34
q0 154 -64 249q-65 95 -210 95t-210 -95t-65 -249v-37h-20v37q0 163 70 263t225 100z" />
    <glyph glyph-name="four.alt" horiz-adv-x="833" 
d="M602 369v1036l-500 -1036h500zM752 348h-129v-348h-21v348h-520v23l512 1065h29v-1067h129v-21z" />
    <glyph glyph-name="five.alt" 
d="M672 557v-203q0 -160 -71 -262t-225 -102t-224 102t-70 262v54h20v-54q0 -152 66 -248t209 -96t209 96t65 248v203q0 152 -65 247q-66 95 -209 95q-184 0 -254 -178v-12h-21l37 727h506v-21h-487l-31 -643q76 148 239 148q162 0 234 -102t72 -261z" />
    <glyph glyph-name="six.alt" horiz-adv-x="765" 
d="M383 823q-145 0 -213 -95t-68 -247v-127q0 -154 68 -249t213 -95t213 95t68 249v127q0 152 -68 247t-213 95zM82 1081q0 163 72 263t228 100t226 -97t70 -257v-7h-21v7q0 336 -274 335q-145 0 -213 -95t-68 -249v-444q63 207 281 207q157 0 229 -102t72 -261v-127
q0 -162 -73 -263t-229 -101t-228 101t-72 263v727z" />
    <glyph glyph-name="seven.alt" 
d="M82 1415v21h590v-23l-443 -1413h-22l442 1415h-567z" />
    <glyph glyph-name="eight.alt" horiz-adv-x="784" 
d="M682 436q0 301 -290 301t-290 -301v-94q0 -152 72 -242t218 -90t218 90t72 242v94zM391 1425q-143 0 -216 -87t-73 -234v-47q0 -299 290 -299t290 299v47q0 147 -74 234t-217 87zM82 1104q0 156 78 248t232 92q153 0 232 -92t78 -248v-47q0 -268 -217 -307
q217 -43 217 -314v-94q0 -160 -78 -256t-233 -96q-157 0 -233 96t-76 256v94q0 266 221 314q-221 43 -221 307v47z" />
    <glyph glyph-name="nine.alt" horiz-adv-x="765" 
d="M383 1425q-145 0 -213 -95t-68 -249v-127q0 -152 68 -246t213 -96q145 0 213 96t68 246v127q0 154 -68 249t-213 95zM383 1446q157 0 229 -101t72 -264v-727q0 -162 -73 -263t-227 -101t-228 99t-74 259v8h20v-8q0 -152 68 -245t213 -93t213 95t68 249v445
q-63 -207 -281 -207q-157 0 -229 101t-72 261v127q0 161 72 263t229 102z" />
    <glyph glyph-name="Edotaaccent" horiz-adv-x="0" 
 />
    <glyph glyph-name="edotaaccent" horiz-adv-x="0" 
 />
    <glyph glyph-name="lcute" horiz-adv-x="0" 
 />
    </font>
</defs>
</svg>
